<svg width="21" height="22" viewBox="0 0 21 22" fill="none" xmlns="http://www.w3.org/2000/svg">
<path d="M10.4126 21.2848C16.1634 21.2848 20.8253 16.52 20.8253 10.6424C20.8253 4.76476 16.1634 0 10.4126 0C4.6619 0 0 4.76476 0 10.6424C0 16.52 4.6619 21.2848 10.4126 21.2848Z" fill="url(#paint0_linear_4_795)"/>
<path d="M14.9696 14.8849L11.4515 6.19722C11.3914 6.00512 11.2738 5.83711 11.1155 5.71679C10.9571 5.59646 10.7658 5.52985 10.5685 5.52634H10.2568C10.0595 5.52985 9.86819 5.59646 9.70981 5.71679C9.55142 5.83711 9.4339 6.00512 9.37373 6.19722L7.83899 9.986H6.68203C6.51496 9.98849 6.35541 10.0574 6.23727 10.1782C6.11912 10.2989 6.0517 10.462 6.04926 10.6328C6.05172 10.8031 6.11931 10.9656 6.23758 11.0856C6.35586 11.2055 6.51539 11.2734 6.68203 11.2747H7.30537L5.84148 14.8897C5.81287 14.9685 5.79846 15.0519 5.79896 15.1359C5.79236 15.3132 5.8533 15.4862 5.96896 15.6185C6.02988 15.6824 6.10371 15.7318 6.18527 15.7635C6.26683 15.7952 6.35416 15.8083 6.44119 15.8019C6.57182 15.802 6.69911 15.7597 6.80481 15.6813C6.91555 15.5968 7.00198 15.4834 7.05508 15.3531L8.66539 11.2747H9.78457C9.95158 11.2734 10.1113 11.2047 10.229 11.0836C10.3466 10.9624 10.4126 10.7986 10.4126 10.6279C10.4126 10.4572 10.3466 10.2935 10.229 10.1723C10.1113 10.0512 9.95158 9.98247 9.78457 9.98119H9.18956L10.4174 6.85362L13.7655 15.3675C13.8204 15.4968 13.9085 15.6086 14.0204 15.6909C14.1431 15.7816 14.2929 15.8254 14.4439 15.8149C14.5949 15.8043 14.7375 15.7399 14.8468 15.633C14.9638 15.5011 15.0264 15.3282 15.0216 15.1503C15.0243 15.059 15.0066 14.9682 14.9696 14.8849Z" fill="white"/>
<defs>
<linearGradient id="paint0_linear_4_795" x1="19.333" y1="2.94416" x2="0.699974" y2="17.5288" gradientUnits="userSpaceOnUse">
<stop stop-color="#B6509E"/>
<stop offset="1" stop-color="#2EBAC6"/>
</linearGradient>
</defs>
</svg>
