<svg width="20" height="20" viewBox="0 0 20 20" fill="none" xmlns="http://www.w3.org/2000/svg">
<path d="M16.0848 13.8462V8.71795C16.0848 5.56923 14.4227 2.93333 11.5242 2.2359V1.53846C11.5242 0.68718 10.835 0 9.99384 0C9.15266 0 8.48378 0.68718 8.48378 1.53846V2.2359C5.57513 2.93333 3.92319 5.55897 3.92319 8.71795V13.8462L2.60569 15.1692C1.9672 15.8154 2.41313 16.9231 3.31511 16.9231H16.6624C17.5644 16.9231 18.0205 15.8154 17.382 15.1692L16.0848 13.8462ZM9.99384 20C11.1086 20 12.0208 19.0769 12.0208 17.9487H7.96691C7.96691 18.4928 8.18046 19.0145 8.56058 19.3992C8.9407 19.7839 9.45626 20 9.99384 20ZM4.70356 2.28718C5.12921 1.89744 5.13935 1.23077 4.73396 0.820513C4.54762 0.632875 4.29654 0.525847 4.0337 0.52202C3.77086 0.518193 3.51684 0.617865 3.32525 0.8C1.55677 2.43207 0.388304 4.62349 0.01122 7.01539C-0.0799917 7.64103 0.396336 8.20513 1.02468 8.20513C1.51115 8.20513 1.9368 7.84615 2.01788 7.35385C2.31654 5.40462 3.26406 3.61707 4.70356 2.28718ZM16.6928 0.8C16.2874 0.420513 15.6591 0.430769 15.274 0.820513C14.8686 1.23077 14.8889 1.88718 15.3044 2.27692C16.703 3.57949 17.686 5.35385 17.9901 7.34359C18.061 7.8359 18.4867 8.19487 18.9833 8.19487C19.6015 8.19487 20.0879 7.63077 19.9866 7.00513C19.6015 4.57436 18.4157 2.41026 16.6928 0.8Z" fill="#4569F5"/>
</svg>
