<svg width="18" height="17" viewBox="0 0 18 17" fill="none" xmlns="http://www.w3.org/2000/svg">
  <path fill-rule="evenodd" clip-rule="evenodd"
    d="M15.0226 10.2402C15.1099 10.2163 15.2012 10.2038 15.2937 10.2038C16.0337 10.2038 16.5137 10.9738 16.1937 11.6438C15.969 12.1174 15.6993 12.5656 15.3895 12.9826C15.6993 12.5656 15.969 12.1174 16.1937 11.6438C16.5137 10.9738 16.0337 10.2038 15.2937 10.2038C15.2012 10.2038 15.1099 10.2163 15.0226 10.2402ZM5.55368 0.980664C6.3593 0.59192 7.23617 0.336301 8.15366 0.243802C9.33782 0.118991 10.5349 0.261769 11.6565 0.661591C12.778 1.06141 13.7955 1.70807 14.6337 2.5538L14.6337 2.55379C14.588 2.50768 14.5417 2.46215 14.495 2.41723C13.6842 1.63827 12.7169 1.0396 11.6565 0.661579C10.5349 0.261756 9.33783 0.118979 8.15368 0.243789C7.23618 0.336289 6.3593 0.591914 5.55368 0.980664ZM11.6016 13.5966C11.4468 13.672 11.2893 13.7404 11.1297 13.8018C11.2893 13.7404 11.4468 13.672 11.6016 13.5966C11.6016 13.5966 11.6016 13.5966 11.6016 13.5966ZM10.5141 14.0011C9.57102 14.2511 8.57511 14.2686 7.61366 14.0438C5.39366 13.5538 3.60366 11.7438 3.13366 9.5238C2.93609 8.64606 2.93838 7.73514 3.14036 6.8584C3.34233 5.98166 3.73883 5.16155 4.30051 4.45872C4.51115 4.19516 4.743 3.95062 4.99328 3.72731C4.74301 3.95061 4.51116 4.19515 4.30053 4.45871C3.73884 5.16154 3.34235 5.98165 3.14037 6.85839C2.9384 7.73512 2.93611 8.64605 3.13368 9.52379C3.60368 11.7438 5.39368 13.5538 7.61368 14.0438C8.57512 14.2686 9.57103 14.2511 10.5141 14.0011ZM13.2001 3.98019L13.1666 3.94669C13.1778 3.95781 13.189 3.96898 13.2001 3.98019ZM16.9595 6.42226C16.9753 6.35189 16.9837 6.27877 16.9837 6.20379V2.61379C16.9837 1.83504 16.1568 1.39316 15.528 1.71691C16.1568 1.39318 16.9837 1.83506 16.9837 2.6138V6.2038C16.9837 6.27877 16.9753 6.35189 16.9595 6.42226ZM6.47212 2.97821C7.25567 2.60093 8.11402 2.40461 8.98368 2.40379C10.5147 2.40379 11.8881 3.01138 12.9192 3.98546L11.5523 5.35237C10.7986 6.10599 11.3222 7.40379 12.3937 7.40379H15.9837C16.6441 7.40379 17.1837 6.86425 17.1837 6.20379V2.61379C17.1837 1.54653 15.8889 1.00572 15.1323 1.76236L14.6315 2.27099C13.8007 1.47342 12.8098 0.860397 11.7236 0.473191C10.574 0.0633608 9.34696 -0.0830233 8.13317 0.0448437C4.36983 0.424473 1.27546 3.47779 0.854932 7.24145C0.291516 12.2107 4.13511 16.4038 8.98368 16.4038C10.5316 16.4038 12.0478 15.9646 13.3561 15.1372C14.6643 14.3098 15.7109 13.1282 16.3743 11.7297C16.7565 10.9291 16.1829 10.0038 15.2937 10.0038C14.8548 10.0038 14.4304 10.2409 14.2337 10.6465L14.2323 10.6495C13.6711 11.8568 12.7112 12.8341 11.5141 13.4168C10.3169 13.9995 8.95566 14.1521 7.65921 13.849L7.65679 13.8485C5.51357 13.3754 3.78313 11.6257 3.32936 9.48236L3.3288 9.47987C3.13781 8.63138 3.14003 7.75081 3.33527 6.90329C3.53051 6.05576 3.9138 5.26298 4.45677 4.58357C4.99974 3.90416 5.6885 3.35551 6.47212 2.97821Z"
    fill="#4569F5" />
</svg>