<svg width="16" height="14" viewBox="0 0 16 14" fill="none" xmlns="http://www.w3.org/2000/svg">
<path d="M11.4356 8.27575C11.4784 8.12718 11.5689 7.99651 11.6934 7.90346C11.818 7.8104 11.9698 7.76 12.1259 7.76C12.2819 7.76 12.4336 7.8104 12.5581 7.90346C12.6827 7.99651 12.7733 8.12718 12.8161 8.27575L15.1491 12.3777C15.5219 13.0204 15.1492 13.5399 14.4727 13.5399H9.77884C9.03336 13.5399 8.72965 13.0204 9.1024 12.3777L11.4356 8.27575ZM6.93503 0.481982C7.30778 -0.160661 7.90141 -0.160661 8.31557 0.481982L8.84018 1.41175L10.0687 3.53117C10.2116 3.83283 10.2858 4.16188 10.2858 4.49508C10.2858 4.82827 10.2116 5.15741 10.0687 5.45906L5.9271 12.5144C5.74157 12.7945 5.49291 13.028 5.2006 13.1965C4.9083 13.365 4.5804 13.4638 4.24289 13.4853H0.846835C0.101346 13.4853 -0.216176 12.9657 0.156568 12.3231L6.93503 0.481982Z" fill="#E84142"/>
</svg>
