<svg width="24" height="19" viewBox="0 0 24 19" fill="none" xmlns="http://www.w3.org/2000/svg">
<path d="M18.8484 3.46984L10.6413 3.46984C9.89021 3.46984 9.2757 4.1489 9.2757 4.97886C9.2757 5.80882 9.89021 6.48789 10.6413 6.48789L18.8484 6.48788L18.8484 9.18904C18.8484 9.8681 19.5858 10.2001 20.0091 9.71719L23.8054 5.50702C24.0649 5.20522 24.0649 4.73742 23.8054 4.43561L20.0091 0.22544C19.5858 -0.257447 18.8484 0.0896293 18.8484 0.753598L18.8484 3.46984ZM0.194634 14.5612L4.00459 18.7713C4.42791 19.2542 5.16532 18.9222 5.16532 18.2432L5.16532 15.542L13.3724 15.542C14.1235 15.542 14.738 14.863 14.738 14.033C14.738 13.203 14.1235 12.524 13.3724 12.524L5.16532 12.524L5.16532 9.82283C5.16532 9.14377 4.42791 8.81178 4.00458 9.29467L0.194634 13.5048C0.0698527 13.6461 -2.25742e-07 13.8356 -2.17114e-07 14.033C-2.08487e-07 14.2304 0.0698528 14.4199 0.194634 14.5612Z" fill="#4569F5"/>
</svg>
