<svg width="18" height="18" viewBox="0 0 18 18" fill="none" xmlns="http://www.w3.org/2000/svg">
<path d="M5.5496 7.46562L9.01474 4.04731L12.4661 7.46562L14.4818 5.4693L8.95964 0L3.43751 5.4693L5.43921 7.46562H5.5496ZM0 8.83294L2.01552 6.83662L4.01723 8.83294L2.01552 10.8292L0 8.83294ZM5.43921 10.2003L8.90436 13.6186L12.3557 10.2003L14.3712 12.1828L8.84909 17.6521L3.32696 12.1828L5.34265 10.2003H5.43921ZM13.6258 8.83294L15.6414 6.83662L17.6431 8.83294L15.6414 10.8292L13.6258 8.83294Z" fill="#F3BA2F"/>
<path d="M11.0442 8.87371L9.01474 6.8501L7.49619 8.34043L7.33053 8.51819L6.97158 8.87371L9.01474 10.8974L11.0442 8.87371Z" fill="#F3BA2F"/>
</svg>
