<svg width="25" height="27" viewBox="0 0 25 27" fill="none" xmlns="http://www.w3.org/2000/svg">
<path d="M14.5816 0.646322L24.1326 7.17508C24.3381 7.3156 24.5066 7.50597 24.6232 7.7293C24.7397 7.95262 24.8007 8.202 24.8007 8.45529C24.8007 8.70858 24.7397 8.95796 24.6232 9.18128C24.5066 9.40461 24.3381 9.59498 24.1326 9.7355L14.5816 16.2658C13.9653 16.6872 13.2411 16.9121 12.5003 16.9121C11.7596 16.9121 11.0354 16.6872 10.4191 16.2658L0.868047 9.7355C0.662535 9.59498 0.49403 9.40461 0.377486 9.18128C0.260943 8.95796 0.199965 8.70858 0.199965 8.45529C0.199965 8.202 0.260943 7.95262 0.377486 7.7293C0.49403 7.50597 0.662535 7.3156 0.868047 7.17508L10.4191 0.646322C11.0354 0.224891 11.7596 0 12.5003 0C13.2411 0 13.9653 0.224891 14.5816 0.646322ZM24.5438 14.1362C24.3211 14.5017 24.0261 14.8151 23.6779 15.0564L14.5996 21.3405C13.9795 21.7698 13.2485 21.9992 12.5003 21.9992C11.7522 21.9992 11.0211 21.7698 10.4011 21.3405L1.32271 15.0564C0.779376 14.6805 0.37097 14.1326 0.159892 13.4963C-0.0511866 12.86 -0.0533315 12.1704 0.153785 11.5327L10.4191 18.5492C10.9954 18.9431 11.6667 19.1656 12.3588 19.1922C13.0508 19.2188 13.7366 19.0485 14.34 18.7L14.5801 18.5492L24.8454 11.5327C24.9856 11.9626 25.0312 12.419 24.9791 12.8691C24.9269 13.3193 24.7783 13.752 24.5438 14.1362ZM24.5438 19.137C24.3211 19.5025 24.0261 19.8159 23.6779 20.0572L14.5996 26.3413C13.9795 26.7706 13.2485 27 12.5003 27C11.7522 27 11.0211 26.7706 10.4011 26.3413L1.32271 20.0572C0.779376 19.6813 0.37097 19.1334 0.159892 18.4971C-0.0511866 17.8608 -0.0533315 17.1712 0.153785 16.5335L10.4191 23.5501C10.9954 23.9439 11.6667 24.1664 12.3588 24.193C13.0508 24.2196 13.7366 24.0493 14.34 23.7009L14.5801 23.5501L24.8454 16.5335C24.9856 16.9634 25.0312 17.4198 24.9791 17.8699C24.9269 18.3201 24.7783 18.7528 24.5438 19.137Z" fill="#4569F5"/>
</svg>
