<svg width="16" height="15" viewBox="0 0 16 15" fill="none" xmlns="http://www.w3.org/2000/svg">
<path d="M4.3106 7.21233C4.27706 7.79514 4.7257 8.29409 5.30851 8.32764C5.32947 8.32764 5.35044 8.32764 5.3714 8.32764C5.95841 8.32764 6.4322 7.85384 6.42801 7.26684C6.42801 6.67984 5.95421 6.20604 5.36721 6.21023C4.80536 6.21023 4.33995 6.65048 4.3106 7.21233Z" fill="#0033AD"/>
<path d="M0.360939 6.93972C0.17226 6.92714 0.00873745 7.07389 0.000351687 7.26257C-0.00803407 7.45125 0.134524 7.61477 0.323203 7.62316C0.511883 7.63574 0.671213 7.48898 0.683791 7.30031C0.69637 7.11163 0.549619 6.9523 0.360939 6.93972Z" fill="#0033AD"/>
<path d="M4.24353 1.06574C4.41125 0.981885 4.47834 0.772241 4.39448 0.604526C4.31062 0.436811 4.10098 0.369725 3.93326 0.453582C3.76555 0.53744 3.69846 0.742891 3.78232 0.910606C3.86618 1.08251 4.07163 1.15379 4.24353 1.06574C4.23934 1.06574 4.24353 1.06574 4.24353 1.06574Z" fill="#0033AD"/>
<path d="M5.31687 2.93986C5.57683 2.80988 5.68165 2.49122 5.55167 2.23126C5.42169 1.9713 5.10304 1.86648 4.84308 1.99646C4.58312 2.12644 4.4783 2.4451 4.60828 2.70506C4.73825 2.96501 5.05691 3.06984 5.31687 2.93986Z" fill="#0033AD"/>
<path d="M1.7027 4.22699C1.90396 4.35697 2.17231 4.30246 2.30648 4.1012C2.43646 3.89995 2.38195 3.6316 2.18069 3.49743C1.97943 3.36745 1.71109 3.42196 1.57692 3.62322C1.44275 3.82447 1.50145 4.09701 1.7027 4.22699Z" fill="#0033AD"/>
<path d="M2.34419 6.75113C2.05069 6.73436 1.80331 6.95659 1.78653 7.25009C1.76976 7.54359 1.99199 7.79097 2.28549 7.80774C2.57899 7.82451 2.82637 7.60229 2.84314 7.30879C2.85991 7.01948 2.63769 6.76791 2.34419 6.75113Z" fill="#0033AD"/>
<path d="M1.76134 10.3025C1.54751 10.4115 1.45946 10.6715 1.56847 10.8895C1.67749 11.1033 1.93744 11.1914 2.15547 11.0824C2.36931 10.9733 2.45736 10.7134 2.34835 10.4954C2.23933 10.2815 1.97518 10.1935 1.76134 10.3025Z" fill="#0033AD"/>
<path d="M3.81595 5.65694C4.10526 5.84562 4.491 5.76595 4.67549 5.47664C4.86417 5.18733 4.78451 4.80159 4.4952 4.6171C4.20589 4.42842 3.82014 4.50809 3.63566 4.7974C3.44698 5.08251 3.52664 5.46826 3.81595 5.65694Z" fill="#0033AD"/>
<path d="M10.3358 2.89788C10.5789 3.05721 10.9102 2.99012 11.0695 2.74693C11.2288 2.50375 11.1617 2.17251 10.9186 2.01318C10.6754 1.85385 10.3441 1.92094 10.1848 2.16412C10.0213 2.4115 10.0884 2.73855 10.3358 2.89788Z" fill="#0033AD"/>
<path d="M11.4176 1.03204C11.5769 1.13686 11.7865 1.09074 11.8914 0.931409C11.9962 0.77208 11.9501 0.562436 11.7907 0.457614C11.6314 0.352792 11.4218 0.398914 11.3169 0.55405C11.2163 0.71338 11.2624 0.927217 11.4176 1.03204Z" fill="#0033AD"/>
<path d="M10.4155 6.20196C9.83272 6.16842 9.32958 6.61706 9.30023 7.19987C9.26668 7.78268 9.71532 8.28582 10.2981 8.31517C10.3191 8.31517 10.3401 8.31517 10.3568 8.31517C10.9396 8.31517 11.4134 7.84138 11.4134 7.25437C11.4176 6.69672 10.9774 6.23131 10.4155 6.20196Z" fill="#0033AD"/>
<path d="M5.66495 5.58126C5.84525 5.93765 6.21003 6.16407 6.61254 6.16407C7.19535 6.16407 7.66915 5.69027 7.66915 5.10327C7.66915 4.93974 7.63141 4.77622 7.55594 4.62528C7.29179 4.10117 6.65447 3.89152 6.13456 4.15568C5.61045 4.42402 5.4008 5.06134 5.66495 5.58126Z" fill="#0033AD"/>
<path d="M13.9626 4.22699C14.1765 4.11797 14.2603 3.85382 14.1513 3.63998C14.0423 3.42615 13.7781 3.34229 13.5643 3.45131C13.3505 3.56032 13.2666 3.82028 13.3714 4.03412C13.4846 4.24795 13.7446 4.336 13.9626 4.22699Z" fill="#0033AD"/>
<path d="M11.2792 4.56251C10.9731 4.71765 10.8473 5.09081 11.0025 5.39689C11.1576 5.70297 11.5308 5.82876 11.8368 5.67362C12.1429 5.51849 12.2687 5.14532 12.1136 4.83924C11.9584 4.53316 11.5853 4.41157 11.2792 4.56251Z" fill="#0033AD"/>
<path d="M7.82008 0.872739C8.05907 0.885318 8.26452 0.700831 8.2813 0.461837C8.29807 0.222843 8.10939 0.0173915 7.87039 0.000619993C7.6314 -0.0119587 7.42595 0.168335 7.40918 0.407329C7.3966 0.650517 7.58108 0.855968 7.82008 0.872739Z" fill="#0033AD"/>
<path d="M7.81592 3.61067C8.15974 3.63163 8.45324 3.36748 8.47001 3.02366C8.49097 2.67985 8.22682 2.38635 7.88301 2.36957C7.53919 2.34861 7.24569 2.61276 7.22892 2.95658C7.21215 3.30039 7.4721 3.5939 7.81592 3.61067Z" fill="#0033AD"/>
<path d="M4.44475 9.96697C4.75083 9.81183 4.87662 9.43866 4.72148 9.13258C4.56635 8.8265 4.19318 8.70072 3.8871 8.85585C3.58102 9.01099 3.45523 9.38416 3.61037 9.69024C3.76551 9.99632 4.13867 10.1221 4.44475 9.96697Z" fill="#0033AD"/>
<path d="M8.21841 4.52047C7.89975 5.01104 8.03393 5.66513 8.52449 5.98378C9.01506 6.30244 9.66915 6.16827 9.98781 5.6777C10.3065 5.18714 10.1723 4.53305 9.68173 4.21439C9.50982 4.10118 9.30856 4.04248 9.10311 4.04248C8.74672 4.04248 8.41548 4.22277 8.21841 4.52047Z" fill="#0033AD"/>
<path d="M10.0591 8.94828C9.79496 8.42417 9.15765 8.21452 8.63773 8.47867C8.11362 8.74283 7.90398 9.38014 8.16813 9.90006C8.43228 10.4242 9.0696 10.6338 9.58951 10.3697C10.1094 10.1097 10.3233 9.48077 10.0633 8.95666C10.0633 8.95247 10.0633 8.95247 10.0591 8.94828Z" fill="#0033AD"/>
<path d="M11.9082 8.87272C11.6189 8.68404 11.2331 8.7637 11.0486 9.05301C10.8599 9.34232 10.9396 9.72806 11.2289 9.91255C11.5182 10.1012 11.904 10.0216 12.0885 9.73226C12.2771 9.44714 12.1975 9.0614 11.9082 8.87272Z" fill="#0033AD"/>
<path d="M13.9375 7.28364C13.9543 6.99014 13.732 6.74276 13.4385 6.72599C13.145 6.70922 12.8977 6.93144 12.8809 7.22494C12.8641 7.51844 13.0863 7.76582 13.3798 7.78259C13.6692 7.79937 13.9207 7.57295 13.9375 7.28364Z" fill="#0033AD"/>
<path d="M15.4007 6.90627C15.2121 6.89369 15.0485 7.04044 15.0401 7.22912C15.0318 7.4178 15.1743 7.58132 15.363 7.58971C15.5517 7.60229 15.711 7.45554 15.7236 7.26686C15.732 7.07818 15.5894 6.91885 15.4007 6.90627Z" fill="#0033AD"/>
<path d="M14.0214 10.3026C13.8201 10.1726 13.5518 10.2271 13.4176 10.4284C13.2876 10.6297 13.3421 10.898 13.5434 11.0322C13.7446 11.1621 14.013 11.1076 14.1472 10.9064C14.2813 10.7051 14.2226 10.4326 14.0214 10.3026Z" fill="#0033AD"/>
<path d="M4.30226 13.4974C4.14293 13.3926 3.93329 13.4387 3.82846 13.5938C3.72364 13.7532 3.76976 13.9628 3.9249 14.0676C4.08423 14.1725 4.29387 14.1263 4.3987 13.9712C4.50771 13.8161 4.46159 13.6022 4.30226 13.4974Z" fill="#0033AD"/>
<path d="M11.4805 13.4639C11.3128 13.5477 11.2457 13.7574 11.3296 13.9251C11.4134 14.0928 11.6231 14.1599 11.7908 14.076C11.9585 13.9922 12.0256 13.7867 11.9417 13.619C11.8579 13.4471 11.6524 13.3758 11.4805 13.4639C11.4847 13.4639 11.4805 13.4639 11.4805 13.4639Z" fill="#0033AD"/>
<path d="M7.50557 10.009C7.82423 9.51847 7.69006 8.86439 7.19949 8.54153C6.70892 8.22287 6.05483 8.35705 5.73198 8.84761C5.40913 9.33818 5.5475 9.99227 6.03806 10.3151C6.20997 10.4283 6.41123 10.487 6.61668 10.487C6.97727 10.4912 7.30851 10.3109 7.50557 10.009Z" fill="#0033AD"/>
<path d="M5.38817 11.6316C5.14498 11.4723 4.81374 11.5393 4.65441 11.7825C4.49509 12.0257 4.56217 12.357 4.80536 12.5163C5.04855 12.6756 5.37978 12.6085 5.53911 12.3653C5.70264 12.1222 5.63555 11.7909 5.38817 11.6316Z" fill="#0033AD"/>
<path d="M7.85776 13.6569C7.61877 13.6443 7.41332 13.8288 7.39655 14.0678C7.37977 14.3068 7.56845 14.5122 7.80745 14.529C8.04644 14.5416 8.25189 14.3613 8.26866 14.1223C8.28124 13.8791 8.09676 13.6736 7.85776 13.6569Z" fill="#0033AD"/>
<path d="M7.86204 10.9189C7.51823 10.8979 7.22473 11.1621 7.20795 11.5059C7.18699 11.8497 7.45114 12.1432 7.79496 12.16C8.13877 12.1768 8.43228 11.9168 8.44905 11.573C8.47001 11.2334 8.20586 10.9357 7.86204 10.9189Z" fill="#0033AD"/>
<path d="M10.4072 11.5896C10.1472 11.7238 10.0424 12.0424 10.1765 12.3024C10.3107 12.5624 10.6294 12.6672 10.8893 12.533C11.1493 12.403 11.2541 12.0844 11.1241 11.8244C10.99 11.5645 10.6713 11.4554 10.4072 11.5896Z" fill="#0033AD"/>
</svg>
