<svg width="14" height="14" viewBox="0 0 14 14" fill="none" xmlns="http://www.w3.org/2000/svg">
<path d="M11.6667 14.0001H7.00008C6.38124 14.0001 5.78775 13.7542 5.35017 13.3167C4.91258 12.8791 4.66675 12.2856 4.66675 11.6667V7.00008C4.66675 6.38124 4.91258 5.78775 5.35017 5.35017C5.78775 4.91258 6.38124 4.66675 7.00008 4.66675H11.6667C12.2856 4.66675 12.8791 4.91258 13.3167 5.35017C13.7542 5.78775 14.0001 6.38124 14.0001 7.00008V11.6667C14.0001 12.2856 13.7542 12.8791 13.3167 13.3167C12.8791 13.7542 12.2856 14.0001 11.6667 14.0001ZM7.00008 6.2223C6.7938 6.2223 6.59597 6.30425 6.45011 6.45011C6.30425 6.59597 6.2223 6.7938 6.2223 7.00008V11.6667C6.2223 11.873 6.30425 12.0709 6.45011 12.2167C6.59597 12.3626 6.7938 12.4445 7.00008 12.4445H11.6667C11.873 12.4445 12.0709 12.3626 12.2167 12.2167C12.3626 12.0709 12.4445 11.873 12.4445 11.6667V7.00008C12.4445 6.7938 12.3626 6.59597 12.2167 6.45011C12.0709 6.30425 11.873 6.2223 11.6667 6.2223H7.00008Z" fill="#4569F5"/>
<path d="M5.23444 9.33333H2.07667C1.52653 9.33128 0.999512 9.11184 0.610505 8.72283C0.221498 8.33382 0.00204894 7.8068 0 7.25667V2.07667C0.00204894 1.52653 0.221498 0.999512 0.610505 0.610505C0.999512 0.221498 1.52653 0.00204894 2.07667 0H7.25667C7.8068 0.00204894 8.33382 0.221498 8.72283 0.610505C9.11184 0.999512 9.33128 1.52653 9.33333 2.07667V4.97778H7.77778V2.07667C7.77778 1.93846 7.72287 1.80591 7.62515 1.70819C7.52742 1.61046 7.39487 1.55556 7.25667 1.55556H2.07667C1.93846 1.55556 1.80591 1.61046 1.70819 1.70819C1.61046 1.80591 1.55556 1.93846 1.55556 2.07667V7.25667C1.55556 7.39487 1.61046 7.52742 1.70819 7.62515C1.80591 7.72287 1.93846 7.77778 2.07667 7.77778H5.23444V9.33333Z" fill="#4569F5"/>
</svg>
