<svg width="14" height="14" viewBox="0 0 14 14" fill="none" xmlns="http://www.w3.org/2000/svg">
<path d="M10.34 1H3.66995C2.96182 1 2.28274 1.2813 1.78201 1.78202C1.28129 2.28275 1.00003 2.96187 1.00003 3.67V10.33C1.00003 11.0381 1.28129 11.7173 1.78201 12.218C2.28274 12.7187 2.96182 13 3.66995 13H10.34C10.6902 13 11.0369 12.9309 11.3603 12.7966C11.6836 12.6623 11.9773 12.4654 12.2244 12.2174C12.4715 11.9693 12.6674 11.6749 12.8004 11.351C12.9335 11.0271 13.0013 10.6802 13 10.33V3.67C13.0013 3.31984 12.9335 2.97287 12.8004 2.64899C12.6674 2.32511 12.4715 2.03069 12.2244 1.78263C11.9773 1.53456 11.6836 1.33773 11.3603 1.20343C11.0369 1.06913 10.6902 0.999998 10.34 1V1Z" stroke="#4569F5" stroke-width="2" stroke-linecap="round" stroke-linejoin="round"/>
<path d="M8.25 5.58008L5.75 8.42008" stroke="#4569F5" stroke-width="2" stroke-linecap="round" stroke-linejoin="round"/>
<path d="M5.75 5.58008L8.25 8.42008" stroke="#4569F5" stroke-width="2" stroke-linecap="round" stroke-linejoin="round"/>
</svg>
