<svg width="232" height="216" viewBox="0 0 232 216" fill="none" xmlns="http://www.w3.org/2000/svg">
  <g opacity="0.4">
    <path opacity="0.4" fill-rule="evenodd" clip-rule="evenodd"
      d="M221.532 119.567L188.682 152.401C174.663 166.436 161.01 166.133 146.242 151.397L133.497 138.652L151.022 121.128L162.986 133.092C167.335 137.442 170.378 137.489 174.345 133.507L202.463 105.404C206.414 101.422 206.398 98.4105 202.033 94.0295L189.001 81.014C184.031 76.0276 180.574 76.4258 174.568 80.1856L139.966 101.772C124.592 111.235 111.067 115.425 96.3305 100.721L87.3135 91.7036L105.045 73.9724L111.417 80.3448C116.356 85.2834 119.845 84.9329 126.121 81.1095L160.421 59.5231C175.954 49.9645 189.304 45.8701 204.072 60.6382L220.497 77.0948C235.233 91.9266 235.551 105.532 221.532 119.567Z"
      fill="#CCD5F8" />
    <path opacity="0.4" fill-rule="evenodd" clip-rule="evenodd"
      d="M137.464 203.635L129.499 211.601C128.225 212.877 126.711 213.891 125.045 214.582C123.379 215.273 121.593 215.629 119.789 215.629C117.985 215.629 116.199 215.273 114.533 214.582C112.867 213.891 111.353 212.877 110.079 211.601L38.7877 140.277L56.5189 122.578L74.521 140.58L98.6247 116.477L121.294 127.628L91.36 157.547L137.464 203.635Z"
      fill="#CCD5F8" />
    <path opacity="0.4" fill-rule="evenodd" clip-rule="evenodd"
      d="M166.937 23.6146L149.636 40.9156L139.249 30.5286C134.9 26.1476 131.889 26.0839 127.762 30.226L72.673 85.3153L28.1777 129.811L20.5468 122.18C18.0515 119.672 16.6506 116.278 16.6506 112.741C16.6506 109.203 18.0515 105.809 20.5468 103.302L112.947 10.9017C126.998 -3.11759 140.603 -2.81506 155.355 11.9371L166.937 23.6146Z"
      fill="#CCD5F8" />
    <path opacity="0.4" fill-rule="evenodd" clip-rule="evenodd"
      d="M205.649 119.567L172.815 152.401C158.78 166.436 145.127 166.133 130.375 151.397L117.63 138.652L135.154 121.128L147.103 133.092C151.468 137.442 154.495 137.489 158.477 133.507L186.58 105.404C190.546 101.422 190.515 98.4105 186.165 94.0295L173.118 81.014C168.147 76.0276 164.69 76.4258 158.684 80.1856L124.082 101.772C108.709 111.235 95.1995 115.425 80.4633 100.721L71.4463 91.7036L89.1775 73.9724L95.5499 80.3448C100.489 85.2834 103.977 84.9329 110.27 81.1095L144.57 59.5231C160.102 49.9645 173.453 45.8701 188.205 60.6382L204.645 77.0948C219.35 91.9266 219.684 105.532 205.649 119.567Z"
      fill="#ECECEC" />
    <path opacity="0.4" fill-rule="evenodd" clip-rule="evenodd"
      d="M121.629 203.635L113.663 211.601C112.389 212.877 110.876 213.891 109.21 214.582C107.543 215.273 105.757 215.629 103.954 215.629C102.15 215.629 100.363 215.273 98.6972 214.582C97.031 213.891 95.5177 212.877 94.2436 211.601L22.8567 140.277L40.5879 122.578L58.6058 140.58L82.7094 116.477L105.379 127.628L75.429 157.547L121.629 203.635Z"
      fill="#ECECEC" />
    <path opacity="0.4" fill-rule="evenodd" clip-rule="evenodd"
      d="M151.053 23.6146L133.752 40.9156L123.381 30.5286C119.016 26.1476 116.005 26.0839 111.895 30.226L56.8058 85.3153L12.3104 129.811L4.69537 122.18C2.19227 119.676 0.786133 116.281 0.786133 112.741C0.786133 109.2 2.19227 105.805 4.69537 103.302L97.0952 10.9017C111.146 -3.11759 124.751 -2.81506 139.519 11.9371L151.053 23.6146Z"
      fill="#ECECEC" />
  </g>
</svg>