<svg width="19" height="17" viewBox="0 0 19 17" fill="none" xmlns="http://www.w3.org/2000/svg">
<path fill-rule="evenodd" clip-rule="evenodd" d="M18.58 10.6901V13.1901C18.58 15.4301 17.58 16.48 15.44 16.48H10.44C8.31005 16.48 7.30005 15.4801 7.30005 13.1901V11.2501H9.95006V13.0701C9.95006 13.7301 10.17 13.9601 10.78 13.9601H15.1001C15.7101 13.9601 15.9301 13.7301 15.9301 13.0701V11.0701C15.9301 10.3101 15.6401 10.07 14.9301 9.91003L10.66 8.91003C8.78005 8.46003 7.44005 7.75008 7.44005 5.52008V4.15009H10.1001V5.15009C10.1001 5.90009 10.3901 6.15007 11.1001 6.32007L15.3501 7.32007C17.2601 7.74007 18.58 8.45006 18.58 10.6901Z" fill="#4569F5"/>
<path fill-rule="evenodd" clip-rule="evenodd" d="M7.21004 9.49005H2.69004V16.4901H1.47004C1.27662 16.4914 1.08488 16.4543 0.905934 16.3809C0.726985 16.3075 0.564399 16.1992 0.427632 16.0624C0.290864 15.9257 0.18263 15.7631 0.109226 15.5842C0.0358228 15.4052 -0.00129487 15.2135 3.44843e-05 15.0201V4.19006H2.69004V6.92004H6.34005L7.21004 9.49005Z" fill="#4569F5"/>
<path fill-rule="evenodd" clip-rule="evenodd" d="M18.58 3.29005V5.06007H15.96V3.48005C15.96 2.82005 15.73 2.5901 15.11 2.5901H4.1922e-10V1.44007C-9.16697e-06 1.05989 0.150335 0.69513 0.418228 0.425363C0.686122 0.155596 1.04983 0.00271026 1.43001 7.00837e-05H15.43C17.57 -0.00992992 18.58 1.05005 18.58 3.29005Z" fill="#4569F5"/>
</svg>
