<svg width="13" height="13" viewBox="0 0 13 13" fill="none" xmlns="http://www.w3.org/2000/svg">
<path fill-rule="evenodd" clip-rule="evenodd" d="M1.83058 1.83058C3.00269 0.65848 4.5924 0 6.25 0C7.9076 0 9.49732 0.65848 10.6694 1.83058C11.8415 3.00268 12.5 4.5924 12.5 6.25C12.5 7.9076 11.8415 9.49731 10.6694 10.6694C9.49732 11.8415 7.9076 12.5 6.25 12.5C4.5924 12.5 3.00269 11.8415 1.83058 10.6694C0.658481 9.49731 0 7.9076 0 6.25C0 4.5924 0.658481 3.00268 1.83058 1.83058ZM2.79023 9.70977C3.70782 10.6274 4.95233 11.1429 6.25 11.1429C7.54767 11.1429 8.79218 10.6274 9.70977 9.70977C10.6274 8.79218 11.1429 7.54767 11.1429 6.25C11.1429 4.95233 10.6274 3.70782 9.70977 2.79023C8.79218 1.87264 7.54767 1.35714 6.25 1.35714C4.95233 1.35714 3.70782 1.87264 2.79023 2.79023C1.87264 3.70782 1.35714 4.95233 1.35714 6.25C1.35714 7.54767 1.87264 8.79218 2.79023 9.70977ZM5.61865 9.66706C5.45121 9.49962 5.35714 9.27252 5.35714 9.03571C5.35714 8.79891 5.45121 8.57181 5.61865 8.40437C5.7861 8.23693 6.0132 8.14286 6.25 8.14286C6.4868 8.14286 6.7139 8.23693 6.88135 8.40437C7.04879 8.57181 7.14286 8.79891 7.14286 9.03571C7.14286 9.27252 7.04879 9.49962 6.88135 9.66706C6.7139 9.8345 6.4868 9.92857 6.25 9.92857C6.0132 9.92857 5.7861 9.8345 5.61865 9.66706ZM5.77018 2.77018C5.89743 2.64292 6.07003 2.57143 6.25 2.57143C6.42997 2.57143 6.60257 2.64292 6.72982 2.77018C6.85708 2.89743 6.92857 3.07003 6.92857 3.25V7.10714C6.92857 7.28711 6.85708 7.45971 6.72982 7.58697C6.60257 7.71422 6.42997 7.78571 6.25 7.78571C6.07003 7.78571 5.89743 7.71422 5.77018 7.58697C5.64292 7.45971 5.57143 7.28711 5.57143 7.10714V3.25C5.57143 3.07003 5.64292 2.89743 5.77018 2.77018Z" fill="#4569F5"/>
</svg>
