<svg width="17" height="17" viewBox="0 0 17 17" fill="none" xmlns="http://www.w3.org/2000/svg">
<path d="M8.5 17C13.1944 17 17 13.1944 17 8.5C17 3.80558 13.1944 0 8.5 0C3.80558 0 0 3.80558 0 8.5C0 13.1944 3.80558 17 8.5 17Z" fill="#172852"/>
<path d="M6.84672 3.79859C7.84207 3.42629 8.96237 3.42544 9.97642 3.73144C11.2965 4.14114 12.4108 5.13734 12.9931 6.38769C13.1537 6.74384 13.3076 7.11529 13.3229 7.51139C12.5808 7.08129 11.7674 6.80249 10.9522 6.54834C9.64832 6.07829 8.28322 5.75189 7.04902 5.10589C6.76172 4.93419 6.39537 4.75824 6.31717 4.40039C6.28572 4.09099 6.61297 3.91844 6.84672 3.79859Z" fill="#FFD83D"/>
<path d="M3.84196 6.80767C4.13011 6.02567 4.60271 5.29977 5.24446 4.76172C5.40766 6.10387 5.97886 7.40097 6.92236 8.37677C8.05371 9.55232 9.66531 10.274 11.305 10.2468C11.9561 10.2672 12.5927 10.1167 13.2277 9.99517C12.6029 12.2528 10.1286 13.7513 7.83611 13.3909C6.45231 13.2141 5.17476 12.3947 4.40381 11.2379C3.53426 9.95947 3.31496 8.26202 3.84196 6.80767Z" fill="#FFD83D"/>
<path d="M10.9509 6.57056C11.7677 6.8197 12.5829 7.093 13.3264 7.51462L13.3767 7.54045C13.4457 8.0479 13.4959 8.56534 13.4039 9.07362C13.03 8.91864 12.7268 8.64617 12.41 8.40536C11.8001 7.90875 11.1775 7.34047 10.9509 6.57056Z" fill="#FF6F03"/>
</svg>
