<svg width="62" height="62" viewBox="0 0 62 62" fill="none" xmlns="http://www.w3.org/2000/svg">
<circle cx="31" cy="31" r="31" fill="#4569F5" fill-opacity="0.25"/>
<path d="M18.5 46C18.5 46 16 46 16 43.5C16 41 18.5 33.5 31 33.5C43.5 33.5 46 41 46 43.5C46 46 43.5 46 43.5 46H18.5ZM31 31C32.9891 31 34.8968 30.2098 36.3033 28.8033C37.7098 27.3968 38.5 25.4891 38.5 23.5C38.5 21.5109 37.7098 19.6032 36.3033 18.1967C34.8968 16.7902 32.9891 16 31 16C29.0109 16 27.1032 16.7902 25.6967 18.1967C24.2902 19.6032 23.5 21.5109 23.5 23.5C23.5 25.4891 24.2902 27.3968 25.6967 28.8033C27.1032 30.2098 29.0109 31 31 31V31Z" fill="#4569F5"/>
</svg>
