<svg width="16" height="15" viewBox="0 0 16 15" fill="none" xmlns="http://www.w3.org/2000/svg">
<path d="M7.57459 3.03649C9.01632 3.03649 10.1851 2.35675 10.1851 1.51825C10.1851 0.679742 9.01632 0 7.57459 0C6.13286 0 4.96411 0.679742 4.96411 1.51825C4.96411 2.35675 6.13286 3.03649 7.57459 3.03649Z" fill="#E6007A"/>
<path d="M7.57459 14.4762C9.01632 14.4762 10.1851 13.7964 10.1851 12.9579C10.1851 12.1194 9.01632 11.4397 7.57459 11.4397C6.13286 11.4397 4.96411 12.1194 4.96411 12.9579C4.96411 13.7964 6.13286 14.4762 7.57459 14.4762Z" fill="#E6007A"/>
<path d="M3.93662 5.13799C4.65748 3.88946 4.6528 2.53722 3.92617 2.11768C3.19953 1.69815 2.0261 2.37018 1.30524 3.61872C0.584376 4.86726 0.589054 6.2195 1.31569 6.63903C2.04232 7.05857 3.21575 6.38653 3.93662 5.13799Z" fill="#E6007A"/>
<path d="M13.8426 10.8572C14.5634 9.60864 14.5591 8.25663 13.833 7.83738C13.1069 7.41813 11.9338 8.0904 11.213 9.33893C10.4921 10.5875 10.4964 11.9395 11.2225 12.3587C11.9487 12.778 13.1217 12.1057 13.8426 10.8572Z" fill="#E6007A"/>
<path d="M3.92641 12.3584C4.65305 11.9389 4.65773 10.5866 3.93686 9.33808C3.216 8.08955 2.04257 7.41751 1.31593 7.83704C0.589298 8.25658 0.58462 9.60882 1.30548 10.8574C2.02635 12.1059 3.19978 12.7779 3.92641 12.3584Z" fill="#E6007A"/>
<path d="M13.8337 6.63942C14.5599 6.22017 14.5642 4.86816 13.8433 3.61963C13.1224 2.37109 11.9494 1.69882 11.2232 2.11807C10.4971 2.53733 10.4928 3.88934 11.2137 5.13787C11.9346 6.38641 13.1076 7.05868 13.8337 6.63942Z" fill="#E6007A"/>
</svg>
