<svg width="16" height="14" viewBox="0 0 16 14" fill="none" xmlns="http://www.w3.org/2000/svg">
<path d="M11.7893 4.18724C11.5047 4.02463 11.1389 4.02463 10.8137 4.18724L8.53709 5.52878L6.99229 6.38249L4.75638 7.72404C4.47181 7.88665 4.10594 7.88665 3.78071 7.72404L2.03264 6.66706C1.74807 6.50445 1.54481 6.17923 1.54481 5.81335V3.78071C1.54481 3.45549 1.70742 3.13027 2.03264 2.927L3.78071 1.91068C4.06528 1.74807 4.43116 1.74807 4.75638 1.91068L6.50445 2.96766C6.78902 3.13027 6.99229 3.45549 6.99229 3.82137V5.16291L8.53709 4.26855V2.88635C8.53709 2.56113 8.37448 2.23591 8.04926 2.03264L4.79703 0.121958C4.51246 -0.0406528 4.14659 -0.0406528 3.82136 0.121958L0.487834 2.07329C0.162611 2.23591 0 2.56113 0 2.88635V6.70772C0 7.03294 0.162611 7.35816 0.487834 7.56142L3.78071 9.47211C4.06528 9.63472 4.43116 9.63472 4.75638 9.47211L6.99229 8.17122L8.53709 7.27685L10.773 5.97597C11.0576 5.81335 11.4234 5.81335 11.7487 5.97597L13.4967 6.99229C13.7813 7.1549 13.9846 7.48012 13.9846 7.84599V9.87864C13.9846 10.2039 13.822 10.5291 13.4967 10.7323L11.7893 11.7487C11.5047 11.9113 11.1389 11.9113 10.8137 11.7487L9.06558 10.7323C8.78101 10.5697 8.57775 10.2445 8.57775 9.87864V8.57775L7.03294 9.47211V10.8137C7.03294 11.1389 7.19555 11.4641 7.52077 11.6674L10.8137 13.578C11.0982 13.7407 11.4641 13.7407 11.7893 13.578L15.0822 11.6674C15.3668 11.5047 15.57 11.1795 15.57 10.8137V6.95163C15.57 6.62641 15.4074 6.30119 15.0822 6.09792L11.7893 4.18724Z" fill="#8247E5"/>
</svg>
