<svg width="16" height="13" viewBox="0 0 16 13" fill="none" xmlns="http://www.w3.org/2000/svg">
<path d="M2.58349 9.44824C2.68344 9.35226 2.81706 9.29837 2.95626 9.29785H15.7262C15.7763 9.30005 15.8249 9.31641 15.8659 9.34509C15.9069 9.37376 15.9387 9.41351 15.9576 9.45959C15.9765 9.50566 15.9816 9.55616 15.9724 9.60505C15.9632 9.65394 15.9401 9.69918 15.9057 9.73541L13.3932 12.2239C13.2932 12.3198 13.1596 12.3738 13.0204 12.3743H0.305582C0.254247 12.3747 0.204061 12.3601 0.160991 12.3324C0.117921 12.3048 0.0839931 12.2653 0.0634165 12.2187C0.0428398 12.1721 0.0365018 12.1205 0.0452161 12.0704C0.0539304 12.0203 0.0771613 11.9739 0.112288 11.9368L2.58349 9.44824Z" fill="url(#paint0_linear_455_456)"/>
<path d="M2.58349 0.150478C2.68799 0.0616398 2.81883 0.00878876 2.95626 8.67995e-06H15.7262C15.7792 -0.000421011 15.831 0.0151124 15.875 0.0444901C15.9189 0.0738679 15.9529 0.115721 15.9724 0.164582C15.9918 0.213443 15.9957 0.267049 15.9838 0.318222C15.9719 0.369396 15.9447 0.415747 15.9056 0.451249L13.3931 2.93979C13.2932 3.03577 13.1596 3.08965 13.0204 3.09018H0.305582C0.254247 3.09056 0.204061 3.07603 0.160991 3.04836C0.117921 3.0207 0.0839931 2.98111 0.0634164 2.93453C0.0428398 2.88795 0.0365018 2.83642 0.0452161 2.78632C0.0539304 2.73621 0.0771613 2.6897 0.112288 2.65262L2.58349 0.150478Z" fill="url(#paint1_linear_455_456)"/>
<path d="M13.3518 4.7723C13.2518 4.67633 13.1182 4.62236 12.979 4.62183H0.264339C0.213004 4.62145 0.162649 4.63606 0.119578 4.66373C0.0765083 4.6914 0.0425808 4.73089 0.0220041 4.77748C0.00142745 4.82406 -0.00491059 4.87567 0.00380374 4.92578C0.0125181 4.97588 0.0359175 5.02231 0.0710441 5.05939L2.58354 7.54793C2.68348 7.6439 2.8171 7.69779 2.95631 7.69831H15.7262C15.7764 7.69612 15.8249 7.67975 15.8659 7.65108C15.907 7.62241 15.9387 7.58265 15.9576 7.53658C15.9765 7.49051 15.9817 7.44 15.9725 7.39112C15.9632 7.34223 15.9401 7.29698 15.9057 7.26076L13.3518 4.7723Z" fill="url(#paint2_linear_455_456)"/>
<defs>
<linearGradient id="paint0_linear_455_456" x1="14.4699" y1="-1.47667" x2="5.79431" y2="15.2868" gradientUnits="userSpaceOnUse">
<stop stop-color="#00FFA3"/>
<stop offset="1" stop-color="#DC1FFF"/>
</linearGradient>
<linearGradient id="paint1_linear_455_456" x1="25523.5" y1="3058.88" x2="25518.7" y2="3106.45" gradientUnits="userSpaceOnUse">
<stop stop-color="#00FFA3"/>
<stop offset="1" stop-color="#DC1FFF"/>
</linearGradient>
<linearGradient id="paint2_linear_455_456" x1="25589.9" y1="3052.16" x2="25585.1" y2="3099.52" gradientUnits="userSpaceOnUse">
<stop stop-color="#00FFA3"/>
<stop offset="1" stop-color="#DC1FFF"/>
</linearGradient>
</defs>
</svg>
