<svg width="40" height="39" viewBox="0 0 40 39" fill="none" xmlns="http://www.w3.org/2000/svg">
<path d="M18.9664 34.9282C18.9853 34.7785 18.9737 34.6266 18.9326 34.4815C18.8914 34.3364 18.8214 34.2011 18.7268 34.0836C18.6322 33.9662 18.5148 33.869 18.3818 33.7979C18.2488 33.7268 18.1028 33.6833 17.9525 33.6698C16.0971 33.3772 14.3148 32.7319 12.7021 31.7688C10.0267 30.1728 7.90623 27.7933 6.62793 24.9523C6.09062 23.7264 5.71335 22.4364 5.50542 21.1141C5.46523 20.8503 5.32772 20.611 5.11997 20.4435C4.91222 20.2759 4.64928 20.1922 4.38291 20.2089H2.14696C1.98445 20.2064 1.82341 20.2399 1.67533 20.3069C1.52724 20.3739 1.39577 20.4727 1.29028 20.5963C1.18479 20.72 1.10789 20.8654 1.06507 21.0222C1.02225 21.179 1.01458 21.3433 1.04257 21.5034C1.56278 25.3518 3.21869 28.9577 5.7987 31.8602C8.3787 34.7627 11.7656 36.83 15.5265 37.7978C16.1377 37.9004 16.7423 38.0394 17.337 38.2141H18.1517C18.445 38.0882 18.6871 37.8667 18.8383 37.5855C18.9896 37.3044 19.0411 36.9804 18.9845 36.6662C18.9302 36.0506 18.9664 35.4894 18.9664 34.9282Z" fill="#4569F5"/>
<path d="M39.09 17.3483C38.7455 13.7203 37.3731 10.2659 35.1341 7.39061C35.0493 7.25273 34.9347 7.13558 34.7988 7.04766C34.6629 6.95974 34.5091 6.90328 34.3485 6.88246C34.188 6.86163 34.0249 6.87694 33.871 6.92727C33.7172 6.97759 33.5766 7.06169 33.4594 7.17336C32.8891 7.70745 32.3369 8.26873 31.7937 8.83903C31.6252 9.00762 31.5191 9.22852 31.4928 9.46542C31.4664 9.70232 31.5215 9.94113 31.6489 10.1426C31.7485 10.3146 31.8752 10.4685 31.9838 10.6314C33.2922 12.4367 34.1575 14.5246 34.5098 16.7262C34.862 18.9278 34.6914 21.1814 34.0116 23.3048C33.5168 24.8544 32.7673 26.3107 31.7937 27.6138C31.6876 27.7282 31.6063 27.8633 31.5549 28.0106C31.5034 28.1579 31.483 28.3142 31.4949 28.4698C31.5068 28.6254 31.5508 28.7768 31.624 28.9146C31.6972 29.0524 31.7982 29.1735 31.9205 29.2704C32.4093 29.7683 32.8981 30.2661 33.396 30.7459C33.5072 30.866 33.6439 30.9596 33.796 31.0199C33.9482 31.0801 34.1118 31.1056 34.2751 31.0943C34.4383 31.083 34.597 31.0352 34.7394 30.9546C34.8818 30.874 35.0042 30.7625 35.0979 30.6283C37.1254 28.0557 38.4537 25.0029 38.9542 21.7659C38.9594 21.362 39.0297 20.9616 39.1624 20.58V17.5294C39.0538 17.5294 39.0991 17.4298 39.09 17.3483Z" fill="#4569F5"/>
<path d="M30.2186 30.7731C30.0429 30.5931 29.8089 30.4815 29.5585 30.4583C29.308 30.435 29.0575 30.5017 28.8517 30.6463C28.6616 30.764 28.4805 30.8998 28.2995 31.0266C26.4906 32.3716 24.3916 33.2738 22.171 33.6608C21.895 33.6926 21.6414 33.8282 21.4616 34.04C21.2817 34.2517 21.1891 34.5239 21.2024 34.8014C21.2024 35.4261 21.2024 36.0507 21.2024 36.6662C21.1549 36.9677 21.2104 37.2763 21.3598 37.5424C21.5093 37.8084 21.744 38.0164 22.0261 38.1327H22.7775C22.7838 38.1096 22.7983 38.0895 22.8183 38.0762C22.8382 38.0629 22.8623 38.0573 22.8861 38.0603C26.1167 37.4952 29.1507 36.1184 31.7032 34.0591C31.8376 33.9721 31.9506 33.8557 32.0335 33.7187C32.1164 33.5817 32.1672 33.4276 32.182 33.2681C32.1968 33.1087 32.1753 32.9479 32.119 32.798C32.0627 32.6481 31.9732 32.5128 31.8571 32.4025C31.323 31.8594 30.7708 31.3253 30.2186 30.7731Z" fill="#4569F5"/>
<path d="M2.12888 17.9458H4.18377C4.35153 17.9689 4.5223 17.956 4.68474 17.9081C4.84717 17.8602 4.99757 17.7784 5.12597 17.6679C5.25436 17.5575 5.35783 17.4211 5.42949 17.2677C5.50116 17.1142 5.53937 16.9473 5.54164 16.778C6.13739 13.3432 7.92002 10.2266 10.5786 7.97165C13.2372 5.71674 16.603 4.46663 20.0889 4.43946C21.1166 4.47605 22.1397 4.59412 23.1487 4.79252C25.1269 5.22441 26.9926 6.06633 28.6254 7.26387C28.7444 7.38094 28.8871 7.47112 29.0439 7.52836C29.2007 7.58561 29.3679 7.60858 29.5344 7.59572C29.7008 7.58285 29.8625 7.53444 30.0087 7.45377C30.1548 7.37311 30.282 7.26203 30.3816 7.12807C30.8523 6.66639 31.2868 6.22283 31.7756 5.72495C31.9098 5.60907 32.0145 5.46306 32.0814 5.2989C32.1483 5.13474 32.1753 4.95709 32.1603 4.78047C32.1453 4.60386 32.0886 4.43329 31.995 4.28276C31.9014 4.13224 31.7735 4.00604 31.6218 3.91446C30.6511 3.1611 29.608 2.50607 28.5077 1.9591C25.9005 0.637233 23.0119 -0.0336344 20.0889 0.00379112C19.146 -0.0176722 18.2032 0.0520365 17.2736 0.21198C13.348 0.780295 9.69839 2.56235 6.83615 5.30851C3.63231 8.28732 1.57286 12.2941 1.01541 16.6331C0.985949 16.7951 0.992773 16.9616 1.03537 17.1206C1.07797 17.2796 1.15529 17.4272 1.26178 17.5527C1.36827 17.6782 1.50128 17.7786 1.65121 17.8466C1.80114 17.9145 1.96428 17.9484 2.12888 17.9458Z" fill="#4569F5"/>
<path d="M30.0466 17.5746C29.6981 15.0356 28.3771 12.7312 26.3623 11.1474C24.6038 9.68253 22.3773 8.8986 20.0889 8.93857C19.6287 8.91122 19.1668 8.93854 18.713 9.02001C16.395 9.35655 14.2645 10.4839 12.6825 12.2112C11.1004 13.9384 10.1639 16.1594 10.0317 18.498C9.95921 19.8642 10.1655 21.2309 10.6381 22.5149C11.1106 23.7989 11.8395 24.9734 12.7803 25.9667C13.7212 26.9601 14.8543 27.7515 16.1108 28.293C17.3672 28.8345 18.7207 29.1147 20.0889 29.1165C20.8325 29.155 21.5775 29.0787 22.2977 28.8902C24.7803 28.3326 26.9597 26.8555 28.3973 24.7562C29.835 22.6568 30.4242 20.0909 30.0466 17.5746ZM16.2054 19.7653V23.9022H15.4813C15.2412 23.9022 15.0109 23.8069 14.8411 23.6371C14.6714 23.4674 14.576 23.2371 14.576 22.997V16.597H16.1692V18.2083H18.3328L18.8487 19.7291L16.2054 19.7653ZM25.6019 21.9469C25.6019 23.2776 25.0044 23.9022 23.7461 23.9022H20.8041C19.5458 23.9022 18.9393 23.2776 18.9393 21.9469V20.8154H20.5054V21.8926C20.5054 22.2819 20.6411 22.4177 21.0032 22.4177H23.5198C23.8819 22.4177 24.0177 22.2819 24.0177 21.8926V20.7249C24.0177 20.2723 23.8457 20.1365 23.4021 20.0369L20.8855 19.4485C19.7721 19.1859 18.9755 18.7696 18.9755 17.4479V16.6422H20.5597V17.1944C20.5597 17.638 20.7317 17.7738 21.1843 17.8915L23.6918 18.4618C24.8234 18.7243 25.6019 19.1407 25.6019 20.4623V21.9469ZM25.6019 17.1491H24.0539V16.2439C24.0539 15.8456 23.9181 15.7098 23.547 15.7098H14.6122V15.0218C14.6146 14.7977 14.7053 14.5836 14.8646 14.426C15.0239 14.2683 15.239 14.1799 15.4631 14.1799H23.7461C25.0044 14.1799 25.6019 14.8046 25.6019 16.1262V17.1491Z" fill="#4569F5"/>
</svg>
