<svg width="16" height="4" viewBox="0 0 16 4" fill="none" xmlns="http://www.w3.org/2000/svg">
  <path
    d="M1.77778 1.00011C2.20733 1.00011 2.55556 1.34833 2.55556 1.77789C2.55556 2.20744 2.20733 2.55566 1.77778 2.55566C1.34822 2.55566 1 2.20744 1 1.77789C1 1.34833 1.34822 1.00011 1.77778 1.00011Z"
    stroke="#4569F5" stroke-width="2" />
  <path
    d="M8.00001 1.00011C8.42956 1.00011 8.77778 1.34833 8.77778 1.77789C8.77778 2.20744 8.42956 2.55566 8.00001 2.55566C7.57045 2.55566 7.22223 2.20744 7.22223 1.77789C7.22223 1.34833 7.57045 1.00011 8.00001 1.00011Z"
    stroke="#4569F5" stroke-width="2" />
  <path
    d="M14.2222 1.00011C14.6518 1.00011 15 1.34833 15 1.77789C15 2.20744 14.6518 2.55566 14.2222 2.55566C13.7927 2.55566 13.4444 2.20744 13.4444 1.77789C13.4444 1.34833 13.7927 1.00011 14.2222 1.00011Z"
    stroke="#4569F5" stroke-width="2" />
</svg>