<svg width="24" height="28" viewBox="0 0 24 28" fill="none" xmlns="http://www.w3.org/2000/svg">
<path d="M22.5 0H19.5C19.1022 0 18.7206 0.163961 18.4393 0.455814C18.158 0.747667 18 1.1435 18 1.55625V28H24V1.55625C24 1.1435 23.842 0.747667 23.5607 0.455814C23.2794 0.163961 22.8978 0 22.5 0ZM13.5 9.33748H10.5C10.1022 9.33748 9.72064 9.50144 9.43934 9.7933C9.15804 10.0851 9 10.481 9 10.8937V28H15V10.8937C15 10.481 14.842 10.0851 14.5607 9.7933C14.2794 9.50144 13.8978 9.33748 13.5 9.33748ZM4.5 18.675H1.5C1.10218 18.675 0.720644 18.8389 0.43934 19.1308C0.158035 19.4226 0 19.8185 0 20.2312V28H6V20.2312C6 19.8185 5.84196 19.4226 5.56066 19.1308C5.27936 18.8389 4.89782 18.675 4.5 18.675Z" fill="#4569F5"/>
</svg>
