<svg width="16" height="28" viewBox="0 0 16 28" fill="none" xmlns="http://www.w3.org/2000/svg">
<path d="M8.48 12.2889C4.848 11.3711 3.68 10.4222 3.68 8.94444C3.68 7.24889 5.296 6.06667 8 6.06667C10.272 6.06667 11.408 6.90667 11.824 8.24444C12.016 8.86667 12.544 9.33333 13.216 9.33333H13.696C14.752 9.33333 15.504 8.32222 15.136 7.35778C14.464 5.52222 12.896 3.99778 10.4 3.40667V2.33333C10.4 1.04222 9.328 0 8 0C6.672 0 5.6 1.04222 5.6 2.33333V3.36C2.496 4.01333 0 5.97333 0 8.97556C0 12.5689 3.056 14.3578 7.52 15.4C11.52 16.3333 12.32 17.7022 12.32 19.1489C12.32 20.2222 11.536 21.9333 8 21.9333C5.36 21.9333 4 21.0156 3.472 19.7089C3.232 19.1022 2.688 18.6667 2.032 18.6667H1.584C0.512 18.6667 -0.24 19.7244 0.16 20.6889C1.072 22.8511 3.2 24.1267 5.6 24.6244V25.6667C5.6 26.9578 6.672 28 8 28C9.328 28 10.4 26.9578 10.4 25.6667V24.6556C13.52 24.08 16 22.3222 16 19.1333C16 14.7156 12.112 13.2067 8.48 12.2889Z" fill="#4569F5"/>
</svg>
