<svg width="80" height="113" viewBox="0 0 80 113" fill="none" xmlns="http://www.w3.org/2000/svg">
<path d="M14.7605 23.811C11.3966 24.6575 8.4576 26.7032 6.49564 29.5638C4.53367 32.4244 3.6838 35.903 4.10572 39.346C4.52763 42.789 6.19228 45.9594 8.78691 48.2617C11.3815 50.5639 14.7276 51.8394 18.1963 51.8486H21.753M39.5366 69.6321V37.6217V69.6321ZM39.5366 69.6321L30.6448 62.5187L39.5366 69.6321ZM39.5366 69.6321L48.4283 62.5187L39.5366 69.6321Z" stroke="#A7A7A7" stroke-width="3.5" stroke-linecap="round" stroke-linejoin="round"/>
<path d="M53.1585 16.7722C51.9429 11.9585 48.9424 7.78707 44.7652 5.10359C40.588 2.42011 35.5467 1.42535 30.6633 2.32098C25.7798 3.21661 21.4197 5.9356 18.4666 9.92677C15.5136 13.9179 14.1886 18.8827 14.7603 23.8145C14.7603 23.8145 15.3045 26.9515 16.4177 28.7299" stroke="#A7A7A7" stroke-width="3.5" stroke-linecap="round" stroke-linejoin="round"/>
<path d="M57.3201 51.8479C59.8313 51.8461 62.3136 51.3126 64.6038 50.2824C66.8939 49.2522 68.9399 47.7486 70.607 45.8707C72.2742 43.9928 73.5247 41.7831 74.2763 39.387C75.0279 36.991 75.2636 34.4629 74.9677 31.9692C74.6719 29.4755 73.8512 27.0728 72.5599 24.9191C71.2685 22.7654 69.5356 20.9096 67.4754 19.4739C65.4151 18.0382 63.0741 17.0551 60.6065 16.5893C58.1389 16.1236 55.6006 16.1857 53.1588 16.7716L48.4283 18.0591" stroke="#A7A7A7" stroke-width="3.5" stroke-linecap="round" stroke-linejoin="round"/>
<path d="M8.806 96.34H7.28V102.29C7.28 102.584 7.28 102.85 7.252 103.074C7.154 104.236 6.412 105.02 5.012 105.02C3.626 105.02 2.884 104.236 2.786 103.074C2.758 102.85 2.758 102.584 2.758 102.29V96.34H1.232V102.262C1.232 102.612 1.232 102.892 1.26 103.256C1.386 104.866 2.492 106.196 5.012 106.196C7.532 106.196 8.638 104.866 8.778 103.256C8.806 102.892 8.806 102.612 8.806 102.262V96.34ZM14.6917 98.37C13.9357 98.37 13.1657 98.58 12.7457 98.93L12.1857 99.728V98.566H10.6457V108.744H12.1857V104.992L12.6757 105.734C13.0537 106.028 13.8237 106.196 14.4397 106.196C16.3577 106.196 18.0377 104.88 18.0377 102.15C18.0377 99.98 16.8197 98.37 14.6917 98.37ZM14.2577 105.076C13.2777 105.076 12.1857 104.404 12.1857 102.584V102.206C12.1857 100.218 13.1797 99.49 14.3277 99.49C15.6717 99.49 16.4137 100.68 16.4137 102.29C16.4137 104.138 15.4897 105.076 14.2577 105.076ZM20.8934 95.71H19.3534V103.774C19.3534 104.222 19.3534 104.558 19.3674 104.838C19.4234 105.79 19.9694 106.084 20.7814 106.084C21.1314 106.084 21.4814 106.056 21.7894 106.014V104.936C21.1314 104.992 20.9354 104.852 20.9074 104.432C20.8934 104.208 20.8934 103.984 20.8934 103.732V95.71ZM26.2794 98.37C23.7734 98.37 22.5134 100.106 22.5134 102.276C22.5134 104.446 23.7734 106.196 26.2794 106.196C28.7714 106.196 30.0454 104.446 30.0454 102.276C30.0454 100.106 28.7714 98.37 26.2794 98.37ZM26.2794 105.076C24.9214 105.076 24.1374 103.956 24.1374 102.276C24.1374 100.596 24.9214 99.49 26.2794 99.49C27.6234 99.49 28.4074 100.596 28.4074 102.276C28.4074 103.956 27.6234 105.076 26.2794 105.076ZM35.6836 106H37.2096C37.0976 105.174 37.0696 104.67 37.0696 104.11V101.492C37.0696 101.142 37.0556 100.75 37.0276 100.442C36.9016 99.182 36.1456 98.37 34.2276 98.37C32.5336 98.37 31.3156 99.294 31.2176 100.918H32.7576C32.8416 99.994 33.3036 99.49 34.1996 99.49C35.0816 99.49 35.4596 99.91 35.5016 100.512C35.5296 100.792 35.5296 101.044 35.5296 101.324V101.506H35.0536C32.2396 101.506 30.9236 102.402 30.9236 104.054C30.9236 105.44 32.0016 106.196 33.3176 106.196C34.0176 106.196 34.6616 106.07 35.1656 105.72L35.5436 104.922L35.6836 106ZM33.8776 105.076C33.0656 105.076 32.5476 104.712 32.5476 103.928C32.5476 102.794 33.7236 102.388 35.5296 102.528V103.214C35.5296 104.418 34.8436 105.076 33.8776 105.076ZM45.8605 95.71H44.3205V99.574L43.8305 98.832C43.4525 98.538 42.6825 98.37 42.0665 98.37C40.1485 98.37 38.4685 99.686 38.4685 102.402C38.4685 104.586 39.6865 106.196 41.8145 106.196C42.5705 106.196 43.3405 105.972 43.7605 105.636L44.3205 104.824V106H45.8605V95.71ZM42.1645 105.076C40.8345 105.076 40.0925 103.886 40.0925 102.276C40.0925 100.428 41.0165 99.49 42.2345 99.49C43.2285 99.49 44.3205 100.162 44.3205 101.968V102.36C44.3205 104.348 43.3265 105.076 42.1645 105.076ZM52.622 97.558H57.62V96.34H51.082V106H52.622V101.772H57.088V100.554H52.622V97.558ZM59.5954 95.976C59.0774 95.976 58.6994 96.354 58.6994 96.858C58.6994 97.376 59.0774 97.754 59.5954 97.754C60.1134 97.754 60.5054 97.376 60.5054 96.858C60.5054 96.354 60.1134 95.976 59.5954 95.976ZM60.3654 106V98.566H58.8254V106H60.3654ZM63.823 95.71H62.283V103.774C62.283 104.222 62.283 104.558 62.297 104.838C62.353 105.79 62.899 106.084 63.711 106.084C64.061 106.084 64.411 106.056 64.719 106.014V104.936C64.061 104.992 63.865 104.852 63.837 104.432C63.823 104.208 63.823 103.984 63.823 103.732V95.71ZM72.4011 102.094C72.4011 99.994 71.2391 98.37 69.0831 98.37C66.9411 98.37 65.4431 99.952 65.4431 102.304C65.4431 104.936 66.9411 106.196 68.9291 106.196C70.5531 106.196 71.9671 105.356 72.2891 103.592H70.7351C70.5811 104.53 69.8811 105.076 68.9851 105.076C67.9771 105.076 67.1651 104.488 67.0391 102.71H72.3731C72.4011 102.444 72.4011 102.234 72.4011 102.094ZM69.0271 99.49C70.1051 99.49 70.7071 100.26 70.8191 101.632H67.0531C67.2211 100.204 67.9771 99.49 69.0271 99.49ZM76.2584 98.37C74.6064 98.37 73.5144 99.21 73.5144 100.596C73.5144 101.898 74.5224 102.472 75.8804 102.822C77.1404 103.158 77.6444 103.508 77.6444 104.152C77.6444 104.796 77.0704 105.104 76.3564 105.104C75.5864 105.104 74.9564 104.726 74.7744 103.774H73.2204C73.4304 105.454 74.6484 106.196 76.3004 106.196C77.9244 106.196 79.1984 105.482 79.1984 104.04C79.1984 102.724 78.3444 102.08 76.7204 101.66C75.6144 101.366 75.0684 101.086 75.0684 100.414C75.0684 99.854 75.4184 99.448 76.1464 99.448C76.9024 99.448 77.3644 99.91 77.5184 100.694H79.0864C78.9184 99.336 77.9664 98.37 76.2584 98.37Z" fill="#A7A7A7"/>
</svg>
