<svg width="21" height="22" viewBox="0 0 21 22" fill="none" xmlns="http://www.w3.org/2000/svg">
<path d="M10.3324 21.1207C12.3759 21.1207 14.3736 20.5014 16.0727 19.341C17.7719 18.1806 19.0962 16.5313 19.8782 14.6016C20.6603 12.672 20.8649 10.5486 20.4662 8.50012C20.0675 6.45161 19.0835 4.56996 17.6385 3.09306C16.1935 1.61617 14.3524 0.61039 12.3481 0.202917C10.3439 -0.204557 8.26636 0.00458259 6.37837 0.803871C4.49038 1.60316 2.87667 2.9567 1.74134 4.69334C0.606007 6.42998 2.71041e-05 8.47172 2.71041e-05 10.5604C-0.00308627 11.9481 0.262049 13.3227 0.780195 14.6054C1.29834 15.8881 2.05929 17.0535 3.01936 18.0348C3.97943 19.016 5.11972 19.7938 6.37471 20.3233C7.62969 20.8529 8.97465 21.1239 10.3324 21.1207Z" fill="#2775CA"/>
<path d="M13.1753 12.2351C13.1753 10.6955 12.2686 10.1646 10.4599 9.94739C9.17076 9.76881 8.91102 9.41648 8.91102 8.80351C8.91102 8.19055 9.34077 7.78996 10.205 7.78996C10.9794 7.78996 11.4091 8.05541 11.6216 8.71181C11.6423 8.77593 11.6822 8.8318 11.7355 8.87162C11.7889 8.91144 11.8531 8.93321 11.9191 8.93384H12.6086C12.6486 8.93518 12.6885 8.92809 12.7258 8.91304C12.763 8.89799 12.7969 8.8753 12.8252 8.84634C12.8535 8.81739 12.8758 8.7828 12.8905 8.74471C12.9052 8.70663 12.9121 8.66586 12.9108 8.62493V8.58148C12.8266 8.10516 12.5914 7.67037 12.2415 7.34417C11.8916 7.01796 11.4465 6.81845 10.9747 6.77638V5.72421C10.9747 5.54563 10.8424 5.41533 10.6299 5.37189H9.98772C9.81772 5.37189 9.6855 5.50219 9.643 5.72421V6.73296C8.35382 6.91154 7.53685 7.78995 7.53685 8.89039C7.53685 10.3383 8.39632 10.9127 10.205 11.1347C11.4091 11.3519 11.7964 11.6173 11.7964 12.322C11.7964 13.0267 11.1919 13.5093 10.3797 13.5093C9.26049 13.5093 8.87326 13.0267 8.74575 12.3655C8.73199 12.2929 8.69465 12.2272 8.6398 12.179C8.58495 12.1308 8.51579 12.103 8.44352 12.1H7.71157C7.67171 12.0994 7.63211 12.1069 7.59516 12.1222C7.5582 12.1375 7.52463 12.1602 7.49644 12.189C7.46825 12.2178 7.44601 12.2522 7.43104 12.2899C7.41608 12.3277 7.4087 12.3682 7.40934 12.4089V12.4523C7.58406 13.5528 8.27353 14.3443 9.69021 14.5663V15.6233C9.69021 15.7971 9.82243 15.9274 10.0349 15.9708H10.6961C10.7849 15.9653 10.8688 15.927 10.9321 15.8631C10.9955 15.7992 11.0341 15.7141 11.0408 15.6233V14.5663C12.33 14.3443 13.1941 13.4225 13.1941 12.2351H13.1753Z" fill="white"/>
<path d="M8.13658 16.8541C6.89885 16.3885 5.83064 15.5461 5.07609 14.4405C4.32154 13.3349 3.91696 12.0194 3.91696 10.6714C3.91696 9.32336 4.32154 8.00782 5.07609 6.90222C5.83064 5.79663 6.89885 4.9542 8.13658 4.48863C8.2199 4.4531 8.28997 4.39137 8.33667 4.3124C8.38336 4.23344 8.40426 4.14134 8.3963 4.04943V3.43645C8.40251 3.35545 8.37954 3.27493 8.33171 3.21004C8.28387 3.14514 8.21447 3.10037 8.13658 3.08413C8.07667 3.07763 8.01642 3.093 7.96656 3.12755C6.39964 3.6364 5.03184 4.64173 4.06113 5.99796C3.09042 7.3542 2.5672 8.99097 2.5672 10.6714C2.5672 12.3517 3.09042 13.9885 4.06113 15.3448C5.03184 16.701 6.39964 17.7063 7.96656 18.2152C8.00209 18.2368 8.0422 18.2495 8.08349 18.2521C8.12478 18.2547 8.16608 18.2472 8.20397 18.2302C8.24185 18.2132 8.27521 18.1872 8.30127 18.1544C8.32733 18.1215 8.34533 18.0828 8.35379 18.0414C8.39629 17.998 8.3963 17.9545 8.3963 17.8628V17.2499C8.38354 17.1686 8.35372 17.0912 8.30888 17.0229C8.26404 16.9546 8.20527 16.897 8.13658 16.8541ZM12.6983 3.12755C12.6625 3.10698 12.6226 3.09519 12.5816 3.09311C12.5407 3.09104 12.4998 3.09871 12.4622 3.11556C12.4246 3.13242 12.3915 3.15797 12.3652 3.19021C12.339 3.22245 12.3204 3.26048 12.3111 3.3013C12.2686 3.34474 12.2686 3.39303 12.2686 3.47991V4.09285C12.2766 4.18201 12.3041 4.2682 12.3491 4.34504C12.394 4.42189 12.4553 4.48743 12.5283 4.53688C13.7665 5.00129 14.8354 5.84304 15.5905 6.94833C16.3455 8.05361 16.7505 9.36917 16.7505 10.7172C16.7505 12.0653 16.3455 13.3808 15.5905 14.4861C14.8354 15.5914 13.7665 16.4331 12.5283 16.8975C12.445 16.9331 12.3749 16.9948 12.3282 17.0737C12.2815 17.1527 12.2606 17.2448 12.2686 17.3367V17.9545C12.2634 18.0353 12.2867 18.1154 12.3344 18.18C12.3821 18.2447 12.4509 18.2897 12.5283 18.3069C12.5889 18.3138 12.6499 18.2966 12.6983 18.2586C14.2642 17.7424 15.6297 16.732 16.5983 15.3726C17.5669 14.0131 18.0887 12.3748 18.0887 10.6931C18.0887 9.01138 17.5669 7.37303 16.5983 6.01361C15.6297 4.65418 14.2642 3.64372 12.6983 3.12755Z" fill="white"/>
</svg>
