<svg width="21" height="18" viewBox="0 0 21 18" fill="none" xmlns="http://www.w3.org/2000/svg">
<path fill-rule="evenodd" clip-rule="evenodd" d="M3.67581 0.067567L0.0160427 7.9444C0.00179432 7.97343 -0.00313815 8.00631 0.00194852 8.03837C0.00703518 8.07043 0.0218809 8.10003 0.0443753 8.12298L9.93284 17.8097C9.96169 17.8372 9.99965 17.8525 10.0391 17.8525C10.0785 17.8525 10.1165 17.8372 10.1453 17.8097L20.0338 8.12298C20.0573 8.10171 20.0729 8.07286 20.0781 8.04123C20.0832 8.0096 20.0776 7.97713 20.0621 7.94923L16.4024 0.0868771C16.3907 0.061044 16.372 0.0391499 16.3486 0.0237621C16.3252 0.00837439 16.298 0.000134749 16.2701 3.80915e-06H3.81275C3.78423 -0.000200827 3.75622 0.00784344 3.73199 0.0232171C3.70775 0.0385908 3.68829 0.0606626 3.67581 0.0868771V0.067567Z" fill="#50AF95"/>
<path fill-rule="evenodd" clip-rule="evenodd" d="M11.3117 8.73594C11.2409 8.73594 10.8725 8.76007 10.0556 8.76007C9.40392 8.76007 8.94113 8.76007 8.78057 8.73594C6.26359 8.6201 4.38885 8.17606 4.38885 7.64032C4.38885 7.10458 6.27776 6.67502 8.78057 6.53988V8.28707C8.94585 8.28707 9.41334 8.3305 10.065 8.3305C10.8442 8.3305 11.2361 8.29672 11.307 8.2919V6.53988C13.8192 6.65572 15.6893 7.10458 15.6893 7.64032C15.6893 8.17606 13.8003 8.60563 11.307 8.73594H11.3117ZM11.3117 6.3613V4.79752H14.8109V2.41324H5.27664V4.79752H8.80417V6.3613C5.9708 6.49644 3.81744 7.07079 3.81744 7.76098C3.81744 8.45117 5.95664 9.02552 8.80417 9.16066V14.1754H11.3353V9.16066C14.1687 9.02552 16.3079 8.45117 16.3079 7.76098C16.3079 7.07079 14.1734 6.49644 11.3353 6.3613H11.3117Z" fill="white"/>
</svg>
