<svg width="22" height="21" viewBox="0 0 22 21" fill="none" xmlns="http://www.w3.org/2000/svg">
<g clip-path="url(#clip0_4_657)">
<path d="M4.49958 18.091C2.35545 16.6828 0.839859 14.5222 0.263022 12.0515C0.154485 11.6237 0.0791289 11.1883 0.0375824 10.7493C0.0421752 10.7249 0.0421752 10.6999 0.0375824 10.6754V8.82847C0.103338 8.82847 0.0375824 8.82851 0.0375824 8.75463C0.107621 8.06501 0.249247 7.38423 0.460281 6.72296C0.507249 6.56596 0.563624 6.42744 0.619986 6.26122L1.15543 6.91691C1.67209 7.54488 2.2263 8.14514 2.72416 8.76387C3.33475 9.55807 3.8796 10.3892 4.41504 11.2296L4.49958 11.3589V15.3852C4.49958 15.4406 4.49958 15.496 4.49958 15.5515V16.4749C4.49958 16.7704 4.49958 17.0783 4.49958 17.3984V18.091Z" fill="#5492F6"/>
<path d="M6.64134 9.37337C6.28667 9.02869 5.99159 8.62946 5.76773 8.19134C5.57609 7.83574 5.47587 7.43942 5.47587 7.03699C5.47587 6.63456 5.57609 6.23824 5.76773 5.88263L5.88045 5.70717C6.30252 5.0933 6.84552 4.56885 7.47736 4.16491C8.5147 3.48251 9.64331 2.94487 10.8309 2.56731C11.9042 2.19267 13.0162 1.9356 14.1469 1.8008C14.7514 1.73291 15.3631 1.75785 15.9599 1.87469C16.1665 1.92087 16.345 2.01324 16.5423 2.06865C16.5494 2.0727 16.5575 2.07479 16.5658 2.07479C16.574 2.07479 16.5821 2.0727 16.5892 2.06865C17.1529 2.48887 17.6554 2.98286 18.0828 3.53695C19.0441 4.7171 19.7188 6.09734 20.0555 7.57257H19.9146C19.6892 7.57257 19.4731 7.61873 19.257 7.67414H19.1349L17.3219 7.96966C15.8471 8.20976 14.3723 8.46836 12.8975 8.68076L11.0188 8.93012C10.7558 8.93012 10.4928 8.97628 10.2297 9.03169H10.07L8.23825 9.19791L7.48676 9.26256C7.22374 9.34567 6.93254 9.39184 6.64134 9.37337Z" fill="#5492F6"/>
<path d="M16.5892 2.02238C16.392 1.96697 16.2135 1.87466 16.0068 1.82849C15.4101 1.71164 14.7984 1.68671 14.1939 1.75459C13.0632 1.8894 11.9511 2.14646 10.8779 2.5211C9.69026 2.89866 8.56168 3.4363 7.52435 4.11871C6.8925 4.52264 6.34947 5.04704 5.92741 5.66091L5.81469 5.83637C5.3838 5.56959 5.00254 5.2323 4.68744 4.83905C4.61229 4.73747 4.53716 4.62661 4.4714 4.5158C4.40564 4.40498 4.4714 4.4419 4.38686 4.4419C4.72503 4.26644 5.07258 4.10945 5.39196 3.92475C5.71784 3.73787 6.03157 3.53124 6.33133 3.30604C6.63739 3.08053 6.91216 2.81666 7.1486 2.5211C7.41236 2.23277 7.55355 1.85595 7.54312 1.46831C7.53758 1.33738 7.48422 1.21278 7.39282 1.11739C7.22133 0.94886 6.99546 0.844356 6.75406 0.821865C6.75406 0.821865 6.8198 0.821858 6.85737 0.757214C7.97162 0.285956 9.16738 0.028898 10.38 -4.86434e-05C12.5831 -0.0637201 14.7416 0.617588 16.4953 1.93006C16.4953 1.93006 16.5798 1.97621 16.5892 2.02238Z" fill="#0E3CA4"/>
<path d="M6.75406 0.82189C6.99545 0.844381 7.22132 0.948886 7.39282 1.11741C7.48422 1.21281 7.53758 1.3374 7.54312 1.46834C7.55355 1.85598 7.41236 2.23279 7.1486 2.52112C6.91216 2.81668 6.63739 3.08055 6.33133 3.30606C6.03157 3.53126 5.71784 3.73789 5.39196 3.92478C5.07258 4.10948 4.72503 4.26647 4.38686 4.44193C3.47019 4.87901 2.49659 5.18976 1.49359 5.36541C1.37793 5.37488 1.26168 5.37488 1.14603 5.36541C1.05209 5.36541 1.04269 5.36546 1.08026 5.24541C1.3684 4.69738 1.70472 4.17516 2.0854 3.68472C2.85868 2.68837 3.81443 1.84273 4.9035 1.19131C5.45878 0.862622 6.11235 0.732141 6.75406 0.82189Z" fill="#5492F6"/>
<path d="M15.1238 20.843L14.006 20.8984C13.0196 20.8984 12.0427 20.9538 11.0658 20.9723H9.61912H6.9795C6.36891 20.9723 5.76771 20.9723 5.15712 20.9723C5.05383 20.9758 4.9516 20.9509 4.86196 20.9003C4.77233 20.8497 4.69887 20.7755 4.64988 20.686H4.70624C4.85764 20.8121 5.05313 20.8751 5.25106 20.8615L7.03586 20.8061C7.21562 20.8137 7.39563 20.7982 7.5713 20.7599H7.90949C7.90949 20.7599 7.99402 20.7599 8.04099 20.7599L8.98036 20.686C9.38428 20.686 9.78822 20.6214 10.1921 20.5845L11.667 20.4275C11.9202 20.4062 12.1714 20.3661 12.4184 20.3074H12.5875L14.3254 20.0581C15.2178 19.938 16.0914 19.781 16.9744 19.6425C17.6695 19.5317 18.3646 19.4024 19.0504 19.3008C19.7361 19.1992 20.3749 19.1161 21.0418 19.0884C21.245 19.0809 21.448 19.1058 21.643 19.1623C21.6857 19.1723 21.7247 19.1934 21.7562 19.2234C21.7876 19.2533 21.8103 19.2911 21.8218 19.3326C21.8334 19.3742 21.8333 19.418 21.8217 19.4595C21.8101 19.501 21.7873 19.5387 21.7558 19.5686C21.7158 19.6159 21.6682 19.6565 21.6149 19.6886C21.4532 19.795 21.2758 19.876 21.0888 19.9288C20.6977 20.0511 20.2992 20.1498 19.8958 20.2243L18.8155 20.372C18.4116 20.4274 17.9983 20.4736 17.585 20.5106L16.6456 20.5845L15.3869 20.6768H14.9078C15.0017 20.8245 15.0957 20.7691 15.1238 20.843Z" fill="#770000"/>
<path d="M7.57131 20.7968C7.39563 20.8351 7.21562 20.8506 7.03586 20.843L5.25107 20.8984C5.05313 20.912 4.85764 20.849 4.70624 20.7229H4.64988C4.51388 20.522 4.46328 20.2767 4.50896 20.0396C4.90349 20.0396 5.29804 20.0396 5.69257 20.0396C5.77391 20.0442 5.85547 20.0442 5.93681 20.0396L7.57131 19.9749V20.7968Z" fill="#C21515"/>
<path d="M19.9146 20.2797C20.318 20.2052 20.7164 20.1065 21.1076 19.9842C21.2945 19.9314 21.472 19.8504 21.6336 19.744C21.687 19.7119 21.7346 19.6713 21.7745 19.624C21.8061 19.5941 21.8289 19.5564 21.8405 19.5149C21.8521 19.4734 21.8521 19.4296 21.8406 19.388C21.8291 19.3465 21.8064 19.3087 21.775 19.2788C21.7435 19.2488 21.7044 19.2277 21.6618 19.2177C21.4668 19.1612 21.2638 19.1363 21.0606 19.1438C20.3937 19.1438 19.7267 19.2638 19.0692 19.3562C18.4116 19.4485 17.6883 19.5871 16.9932 19.6979C16.1102 19.8364 15.2365 19.9934 14.3441 20.1135L12.6063 20.3628H12.4372V20.3166C12.6037 20.2755 12.7734 20.2477 12.9445 20.2335L14.3817 20.0119L17.3407 19.5224L19.0128 19.2454L19.7455 19.1253C19.8737 19.1344 20.0024 19.1344 20.1306 19.1253C20.2152 19.1253 20.234 19.0791 20.234 19.0053C20.234 18.7467 20.234 18.4973 20.234 18.248H20.4219H20.76H21.0043V18.9868C21.0043 19.0514 21.0043 19.1161 21.0982 19.1161C21.2293 19.1025 21.3616 19.1025 21.4927 19.1161C21.5867 19.1161 21.6336 19.1161 21.6336 18.9868C21.6102 18.7472 21.6102 18.506 21.6336 18.2665H21.7558L21.8497 18.3127V18.839C21.8497 19.0053 21.8497 19.19 21.9718 19.3193C21.9822 19.3875 21.9747 19.4573 21.95 19.5219C21.9254 19.5865 21.8844 19.6439 21.8309 19.6886C21.6006 19.8855 21.3275 20.0277 21.0325 20.1042C20.6846 20.2101 20.33 20.2934 19.971 20.3536C19.971 20.3536 19.924 20.3259 19.9146 20.2797Z" fill="#C21515"/>
<path d="M4.50895 19.1346V18.2111C4.80955 18.2111 5.10077 18.2111 5.40136 18.2111H5.58925H7.03586V19.0792L5.69257 19.1346H4.50895Z" fill="#C21515"/>
<path d="M19.3416 7.73877C19.5576 7.68336 19.7737 7.67413 19.9992 7.6372H20.1401H20.2998V8.56068H19.9992L19.4919 8.63457H19.3322L19.3416 7.73877Z" fill="#D32626"/>
<path d="M20.9291 7.57256C21.1467 7.53587 21.3691 7.53587 21.5867 7.57256V8.44064C21.3709 8.42682 21.1543 8.42682 20.9385 8.44064L20.9291 7.57256Z" fill="#A60606"/>
<path d="M20.9291 7.57255V8.44062C20.7603 8.42683 20.5906 8.42683 20.4219 8.44062H20.3091V7.51714C20.517 7.51768 20.7245 7.53622 20.9291 7.57255Z" fill="#C21515"/>
<path d="M19.9146 20.2797C19.9146 20.2797 19.9804 20.2797 19.9898 20.3628C19.5013 20.4644 18.994 20.529 18.4962 20.5844C17.7071 20.6768 16.9274 20.7322 16.1383 20.7876L15.1238 20.843C15.1238 20.7691 15.0111 20.843 14.9641 20.7692H15.4432L16.702 20.6768L17.6413 20.6029C18.0547 20.6029 18.468 20.5198 18.8719 20.4644L19.9146 20.2797Z" fill="#A60606"/>
<path d="M21.5773 8.46835V7.60028C21.6649 7.60546 21.7494 7.63418 21.8215 7.68336C21.8215 7.68336 21.8215 7.77573 21.8215 7.8219C21.8215 8.06201 21.8215 8.30209 21.8215 8.54219H21.6712L21.5773 8.46835Z" fill="#C21515"/>
<path d="M21.9906 14.9327V15.7823C21.9674 15.7394 21.9354 15.7017 21.8967 15.6715C21.851 15.6248 21.7921 15.5926 21.7276 15.5792C21.7933 15.5792 21.7839 15.496 21.7839 15.4406V14.748C21.8703 14.7876 21.9424 14.852 21.9906 14.9327Z" fill="#D32626"/>
<path d="M21.9906 11.405V12.2546C21.9436 12.19 21.9061 12.1161 21.8215 12.0976H21.7745V11.7836C21.7558 11.6056 21.7558 11.4261 21.7745 11.248C21.8594 11.2807 21.9339 11.3349 21.9906 11.405Z" fill="#D32626"/>
<path d="M21.9906 9.64114V10.4908C21.9906 10.4908 21.9343 10.3892 21.8779 10.3615L21.7745 10.2968V10.0937C21.7557 9.87861 21.7557 9.66232 21.7745 9.44724C21.8673 9.48522 21.9437 9.55376 21.9906 9.64114Z" fill="#D32626"/>
<path d="M21.8027 8.54219C21.8027 8.30209 21.8027 8.06201 21.8027 7.82191C21.8027 7.82191 21.8027 7.7203 21.8027 7.68336C21.86 7.71013 21.9072 7.75404 21.9376 7.80877C21.968 7.86351 21.98 7.92629 21.9718 7.98813C21.9718 8.23747 21.9718 8.4868 21.9718 8.7269C21.9406 8.67052 21.8954 8.62288 21.8403 8.58841L21.8027 8.54219Z" fill="#D32626"/>
<path d="M21.9906 16.6873V17.5462C21.9906 17.5462 21.9906 17.4538 21.8967 17.4353C21.8027 17.4169 21.8027 17.38 21.7558 17.3523C21.8309 17.3523 21.8309 17.2691 21.8309 17.2137V16.4749C21.8984 16.5342 21.9528 16.6065 21.9906 16.6873Z" fill="#D32626"/>
<path d="M21.9906 19.3285C21.8309 19.1992 21.8685 19.0145 21.8685 18.8483V18.3219C21.9436 18.3219 21.9718 18.4235 22.0094 18.4881L21.9906 19.3285Z" fill="#D32626"/>
<path d="M21.9906 14.0185C21.9906 13.9631 21.9249 13.8984 21.8497 13.8707V13.0026C21.9249 13.0026 21.953 13.1042 21.9906 13.1688V14.0185Z" fill="#D32626"/>
<path d="M16.6362 2.05012C16.6291 2.05417 16.621 2.05632 16.6127 2.05632C16.6045 2.05632 16.5964 2.05417 16.5892 2.05012C16.5892 2.05012 16.6268 2.03165 16.6362 2.05012Z" fill="#0E3CA4"/>
<path d="M5.40136 17.3984H4.50895C4.50895 17.1029 4.50895 16.7951 4.50895 16.4749H5.70197L7.35524 16.4195V17.2784H7.25192L5.40136 17.3984Z" fill="#C21515"/>
<path d="M12.9915 12.3008V13.1781C12.9852 13.4736 12.9633 13.7322 12.9257 13.9538V14.8773H12.7848L11.4227 15.0528L10.4082 15.1701V15.1913H10.0231L9.18702 15.2652L8.16312 15.3575H7.62767H7.23315L5.60803 15.4314H4.47141V15.2652V9.90898C4.46756 9.82101 4.48204 9.73317 4.51395 9.65089C4.54586 9.56861 4.59452 9.49363 4.65697 9.4305C4.71942 9.36738 4.79433 9.31743 4.8771 9.28378C4.95988 9.25014 5.04879 9.23346 5.13835 9.2348H6.48164C6.52494 9.24435 6.56986 9.24435 6.61316 9.2348C6.90437 9.28098 7.19556 9.2348 7.48677 9.2348H7.58071L8.33219 9.17021L10.164 9.00393H10.3236C10.5867 8.94852 10.8497 8.90236 11.1127 8.90236L12.9915 8.65306V9.57654V10.5V11.3773V12.3008Z" fill="#1A3AB7"/>
<path d="M12.9914 9.65038C12.9914 9.35487 12.9914 9.05935 12.9914 8.7269C14.4663 8.5145 15.9411 8.25596 17.4159 8.01585L19.2289 7.72033H19.351V8.58841L18.9846 8.65306L16.2323 9.1148C15.1426 9.31797 14.0623 9.48415 12.9914 9.65038Z" fill="#DD3030"/>
<path d="M5.77711 11.562C5.77711 11.7652 5.89922 11.839 6.09649 11.7929C5.9368 11.8852 5.87105 11.996 5.98377 12.1807C5.96177 12.1464 5.93127 12.1181 5.89513 12.0985C5.85899 12.0789 5.81839 12.0686 5.77711 12.0686C5.73583 12.0686 5.69523 12.0789 5.65909 12.0985C5.62295 12.1181 5.59245 12.1464 5.57045 12.1807C5.66438 12.0053 5.63622 11.876 5.43895 11.7929C5.6644 11.8575 5.73953 11.7467 5.77711 11.562Z" fill="#E1E0E1"/>
<path d="M7.59008 10.4908L7.54312 10.5554C7.42101 10.6293 7.42102 10.6293 7.46799 10.9063C7.32708 10.7493 7.19555 10.7493 7.06404 10.9063C7.13919 10.7401 7.1392 10.6016 6.93254 10.5185C7.1392 10.5185 7.24253 10.4631 7.25192 10.2692C7.35525 10.4908 7.35524 10.4908 7.59008 10.4908Z" fill="#E1E0E1"/>
<path d="M6.72588 14.0093C6.56618 13.8246 6.44406 13.8984 6.31255 14.0093C6.3971 13.843 6.39709 13.7137 6.19043 13.6306C6.39709 13.6306 6.50043 13.5752 6.51921 13.372C6.51921 13.5475 6.63194 13.6676 6.848 13.5937C6.68831 13.7045 6.59436 13.8246 6.72588 14.0093Z" fill="#E1E0E1"/>
<path d="M5.98377 10.934C5.82408 10.777 5.70196 10.7955 5.57044 10.934C5.65499 10.7586 5.65498 10.6293 5.44832 10.5462C5.65498 10.5462 5.74893 10.4815 5.77711 10.2876C5.77711 10.4815 5.88984 10.5739 6.10589 10.5185C5.9462 10.657 5.85226 10.7678 5.98377 10.934Z" fill="#E1E0E1"/>
<path d="M6.33133 15.2467C6.39708 15.0805 6.40648 14.9512 6.19043 14.8681C6.41588 14.8681 6.49103 14.7942 6.51921 14.6095C6.51921 14.7849 6.62255 14.905 6.848 14.8404C6.66952 14.9327 6.61314 15.062 6.74465 15.2283C6.64132 15.2283 6.58496 15.1082 6.50981 15.1174C6.44245 15.1489 6.38185 15.1928 6.33133 15.2467Z" fill="#E1E0E1"/>
<path d="M7.59009 11.719L7.54313 11.7836C7.4304 11.8575 7.43042 11.8575 7.46799 12.1346C7.4472 12.1001 7.41763 12.0716 7.38222 12.0518C7.34681 12.0319 7.30678 12.0215 7.26603 12.0215C7.22528 12.0215 7.18522 12.0319 7.14981 12.0518C7.1144 12.0716 7.08483 12.1001 7.06404 12.1346C7.09151 12.0695 7.11045 12.0012 7.1204 11.9314C7.1204 11.8483 6.99829 11.8483 6.95132 11.7744C6.90435 11.7005 7.12982 11.7744 7.17679 11.7744C7.21404 11.715 7.23952 11.6492 7.25193 11.5805C7.25193 11.5805 7.25193 11.5805 7.25193 11.5805C7.36465 11.7282 7.36464 11.7282 7.59009 11.719Z" fill="#E1E0E1"/>
<path d="M5.9744 13.4182C5.8241 13.2427 5.70198 13.2982 5.56107 13.4182C5.56107 13.3074 5.64559 13.2243 5.62681 13.1596C5.60802 13.095 5.52348 13.0673 5.42955 12.9934C5.6456 12.9934 5.75834 12.9934 5.76773 12.7533C5.8147 12.9287 5.88044 13.0488 6.10589 12.9841C5.92741 13.1227 5.87107 13.2335 5.9744 13.4182Z" fill="#E1E0E1"/>
<path d="M4.82836 15.2652C4.82836 15.1913 4.89411 15.1082 4.87532 15.0528C4.85653 14.9974 4.772 14.9604 4.70624 14.8958C4.90351 14.8958 5.00682 14.8958 5.00682 14.6649C5.00682 14.8311 5.11957 14.9235 5.32623 14.8681C5.28642 14.8786 5.24996 14.8989 5.22027 14.927C5.19059 14.9552 5.16862 14.9902 5.15643 15.0289C5.14424 15.0676 5.14222 15.1087 5.15055 15.1484C5.15889 15.1881 5.17731 15.2251 5.20411 15.2559C5.09138 15.1359 4.95988 15.1266 4.82836 15.2652Z" fill="#E1E0E1"/>
<path d="M7.59008 12.9565H7.52435C7.50371 12.9638 7.48511 12.9757 7.46999 12.9914C7.45488 13.007 7.44367 13.0259 7.43728 13.0465C7.4309 13.0671 7.42952 13.0889 7.43321 13.1101C7.43691 13.1314 7.44559 13.1515 7.45858 13.1689C7.46846 13.1874 7.47361 13.208 7.47361 13.2289C7.47361 13.2498 7.46846 13.2704 7.45858 13.2889C7.32707 13.1227 7.19555 13.1504 7.06404 13.2889C7.13919 13.1227 7.1392 12.9934 6.93254 12.9103C6.97223 12.9226 7.01438 12.925 7.05527 12.9175C7.09615 12.91 7.13453 12.8927 7.16701 12.8671C7.19949 12.8416 7.22507 12.8085 7.24152 12.771C7.25796 12.7334 7.26478 12.6925 7.26132 12.6517C7.24397 12.6962 7.24044 12.7447 7.25121 12.7911C7.26197 12.8376 7.28654 12.8798 7.32178 12.9124C7.35703 12.9451 7.40135 12.9667 7.44912 12.9746C7.4969 12.9824 7.54596 12.9761 7.59008 12.9565Z" fill="#E1E0E1"/>
<path d="M7.59008 14.1847V14.2309C7.43039 14.3325 7.43041 14.3325 7.49617 14.591C7.34587 14.4618 7.21435 14.4433 7.08284 14.591C7.10741 14.5597 7.12368 14.5228 7.13023 14.4837C7.13678 14.4446 7.13342 14.4045 7.1204 14.3671C7.10738 14.3296 7.08511 14.2958 7.05561 14.2688C7.02611 14.2418 6.99028 14.2225 6.95132 14.2124C7.16737 14.2124 7.25191 14.1385 7.2707 13.9538C7.36464 14.1847 7.36463 14.1847 7.59008 14.1847Z" fill="#E1E0E1"/>
<path d="M5.76773 14.0185C5.76773 14.2124 5.88983 14.3047 6.09649 14.2586C5.9368 14.3509 5.86165 14.4618 5.98377 14.6465C5.83347 14.5079 5.70196 14.4895 5.57044 14.6465C5.6362 14.4802 5.67377 14.3417 5.44832 14.2678C5.60801 14.2863 5.76773 14.2309 5.76773 14.0185Z" fill="#E1E0E1"/>
<path d="M6.32195 10.3246C6.3971 10.1583 6.39709 10.029 6.19043 9.9459C6.40648 9.9459 6.49103 9.88129 6.51921 9.68736C6.51921 9.86282 6.63194 9.98287 6.848 9.91823C6.68831 10.0106 6.61315 10.1306 6.72588 10.3061C6.70199 10.2747 6.67062 10.2495 6.63454 10.2327C6.59847 10.216 6.55878 10.2082 6.51893 10.21C6.47908 10.2119 6.44029 10.2232 6.40595 10.2432C6.37161 10.2631 6.34278 10.2911 6.32195 10.3246Z" fill="#E1E0E1"/>
<path d="M5.02562 9.72428C5.02562 9.90897 5.12896 10.029 5.32623 9.95515C5.32623 9.95515 5.32623 9.95515 5.32623 10.0106C5.32623 10.066 5.15713 10.1583 5.23228 10.2876C5.30743 10.4169 5.23228 10.2876 5.23228 10.3338C5.11017 10.1675 5.00684 10.2599 4.88472 10.3338C4.95048 10.1675 4.96925 10.029 4.7532 9.95515C4.9035 10.0106 5.01623 9.93668 5.02562 9.72428Z" fill="#E1E0E1"/>
<path d="M5.02562 10.934C5.02562 11.128 5.13835 11.2203 5.35441 11.1742C5.18532 11.2665 5.11956 11.3773 5.23229 11.5528C5.09138 11.4327 4.95988 11.3865 4.82836 11.5528C4.91291 11.3773 4.89411 11.2388 4.69684 11.1557C4.9035 11.248 5.00684 11.1557 5.02562 10.934Z" fill="#E1E0E1"/>
<path d="M6.848 11.1557C6.64134 11.2388 6.64134 11.3773 6.73528 11.5343C6.64134 11.5343 6.58497 11.4143 6.51921 11.4235C6.44431 11.4565 6.37469 11.5 6.31255 11.5528C6.3971 11.3865 6.39709 11.2573 6.19043 11.1742C6.40648 11.1742 6.49103 11.1095 6.51921 10.9156C6.5474 11.1002 6.63194 11.2111 6.848 11.1557Z" fill="#E1E0E1"/>
<path d="M5.23229 14.0462C5.21029 14.0118 5.17979 13.9835 5.14365 13.9639C5.10751 13.9443 5.0669 13.934 5.02562 13.934C4.98434 13.934 4.94374 13.9443 4.9076 13.9639C4.87146 13.9835 4.84096 14.0118 4.81896 14.0462C4.9035 13.8707 4.9035 13.7414 4.69684 13.6676C4.9035 13.6676 5.01623 13.6214 5.02562 13.409C5.02562 13.5937 5.13835 13.7137 5.35441 13.6491C5.31288 13.6588 5.27465 13.6791 5.24358 13.7079C5.21251 13.7367 5.18966 13.773 5.1773 13.8132C5.16495 13.8533 5.16353 13.896 5.17317 13.9369C5.18282 13.9778 5.2032 14.0154 5.23229 14.0462Z" fill="#E1E0E1"/>
<path d="M6.72588 12.781C6.57558 12.6055 6.44405 12.6609 6.30315 12.781C6.40648 12.6055 6.39709 12.4763 6.19043 12.3932C6.39709 12.3932 6.50043 12.3285 6.51921 12.1346C6.51921 12.31 6.63194 12.4208 6.848 12.3654C6.80463 12.3758 6.76483 12.3973 6.73261 12.4277C6.7004 12.4581 6.67689 12.4963 6.6645 12.5385C6.65211 12.5806 6.65126 12.6252 6.66203 12.6678C6.67281 12.7104 6.69484 12.7495 6.72588 12.781Z" fill="#E1E0E1"/>
<path d="M5.23229 12.781C5.21149 12.7466 5.18192 12.718 5.14651 12.6982C5.1111 12.6784 5.07107 12.6679 5.03032 12.6679C4.98958 12.6679 4.94952 12.6784 4.91411 12.6982C4.8787 12.718 4.84916 12.7466 4.82836 12.781C4.82836 12.7071 4.89411 12.624 4.87532 12.5594C4.85653 12.4947 4.772 12.467 4.70624 12.4116C4.79078 12.4116 4.88472 12.4116 4.94108 12.4116C4.98435 12.3366 5.01602 12.2557 5.03503 12.1715C5.03503 12.3655 5.12896 12.4855 5.35441 12.4301C5.32063 12.4425 5.29007 12.4622 5.26494 12.4876C5.2398 12.5131 5.22071 12.5436 5.20904 12.5772C5.19736 12.6107 5.19338 12.6464 5.1974 12.6816C5.20142 12.7169 5.21334 12.7508 5.23229 12.781Z" fill="#E1E0E1"/>
<path d="M7.5713 20.7968V19.9288L8.17251 19.8733C8.53887 19.8733 8.90521 19.8734 9.28096 19.7903L10.0324 19.7164L10.8215 19.6425C10.8215 19.8641 10.8215 20.095 10.8215 20.3166C10.8187 20.3481 10.8222 20.3798 10.8319 20.4099C10.8416 20.44 10.8572 20.4679 10.8779 20.4921C10.8779 20.4921 10.8027 20.4921 10.7746 20.4921L10.0512 20.566C9.56278 20.6214 9.06491 20.6676 8.57644 20.7045C8.35099 20.7045 8.12555 20.7045 7.90949 20.7692L7.5713 20.7968Z" fill="#D32626"/>
<path d="M7.90949 20.7968C8.12555 20.7968 8.35099 20.7414 8.57644 20.7322C9.06491 20.7322 9.51581 20.6491 10.0513 20.5937L10.7746 20.5198C10.7746 20.5198 10.8403 20.5198 10.8779 20.5198H11.3194L12.3903 20.3905V20.4367C12.1432 20.4953 11.892 20.5355 11.6388 20.5567L10.164 20.7137C9.76004 20.7137 9.35611 20.7968 8.95218 20.8153L8.01281 20.8892C8.01281 20.8892 7.94707 20.8338 7.90949 20.7968Z" fill="#A60606"/>
<path d="M12.3903 20.3258L11.3194 20.4551H10.8779C10.8572 20.431 10.8416 20.403 10.8319 20.3729C10.8223 20.3428 10.8187 20.3111 10.8215 20.2797C10.8215 20.058 10.8215 19.8272 10.8215 19.6056L11.5542 19.5132C12.5969 19.3839 13.6303 19.2269 14.6636 19.0607L17.8292 18.5343L19.4074 18.2665H19.6986V19.1253L18.9659 19.2454L17.2938 19.5224L14.3348 20.0119L12.8975 20.2335C12.7262 20.2507 12.5565 20.2816 12.3903 20.3258Z" fill="#DD3030"/>
<path d="M20.9573 18.1557C21.1573 18.1373 21.3585 18.1373 21.5585 18.1557C21.535 18.3952 21.535 18.6364 21.5585 18.8759C21.5585 18.9868 21.5115 19.0237 21.4176 19.0053C21.2864 18.9916 21.1542 18.9916 21.0231 19.0053C20.9385 19.0053 20.9291 18.9406 20.9291 18.8759L20.9573 18.1557Z" fill="#A60606"/>
<path d="M19.6985 19.1346V18.3219H19.9146H20.187C20.187 18.5712 20.187 18.8206 20.187 19.0792C20.187 19.153 20.187 19.19 20.0837 19.1992C19.9539 19.1869 19.8252 19.1653 19.6985 19.1346Z" fill="#D32626"/>
<path d="M8.17251 19.0053L7.16738 19.0607H7.03586V18.1926H7.49617H7.5619L9.6567 18.0264L10.3894 17.9433C11.047 17.8879 11.7045 17.7955 12.3621 17.7124L13.4987 17.5554V17.8232C13.48 18.0167 13.48 18.2115 13.4987 18.405H13.3954C12.2588 18.5805 11.1221 18.7098 9.97608 18.839L8.17251 19.0053Z" fill="#D32626"/>
<path d="M21.9906 8.7269C21.9594 8.67051 21.9142 8.62288 21.8591 8.58841L21.8027 8.54219H21.6524V9.46567C21.6994 9.46567 21.7558 9.46568 21.7933 9.53032C21.8686 9.57638 21.9276 9.64411 21.9624 9.72428L21.9906 8.7269Z" fill="#E1E0E1"/>
<path d="M18.9752 8.67149L16.2229 9.13324C15.1426 9.31793 14.0717 9.48416 12.9914 9.65038C12.9914 9.9459 12.9914 10.2537 12.9914 10.5739L15.509 10.1768C16.7583 9.98284 17.9889 9.74275 19.2664 9.55806L19.5201 9.51189V8.63457H19.3604L18.9752 8.67149Z" fill="#E1E0E1"/>
<path d="M20.0085 8.52376L19.5013 8.5976V9.47492L20.0273 9.40108H20.1964H20.4125V8.4776H20.2998L20.0085 8.52376Z" fill="#E1E0E1"/>
<path d="M20.9291 8.44061V9.36409C21.0949 9.35471 21.2612 9.35471 21.427 9.36409H21.5585H21.6524V8.44061H21.5773C21.3615 8.4268 21.1449 8.4268 20.9291 8.44061Z" fill="#E1E0E1"/>
<path d="M20.4219 8.47761V9.40109H20.9103V8.47761C20.7478 8.46482 20.5844 8.46482 20.4219 8.47761Z" fill="#E1E0E1"/>
<path d="M21.5773 14.628C21.6481 14.6298 21.7168 14.6523 21.7745 14.6926V15.3852C21.7745 15.4406 21.7745 15.496 21.7182 15.5237H21.5585C21.5585 15.4129 21.5585 15.2929 21.5585 15.182C21.543 14.9972 21.5493 14.8113 21.5773 14.628Z" fill="#C21515"/>
<path d="M21.7934 11.2018C21.7746 11.3799 21.7746 11.5594 21.7934 11.7375V12.0515H21.6712H21.5773V11.1834H21.7182L21.7934 11.2018Z" fill="#C21515"/>
<path d="M21.7745 10.2968C21.7182 10.2968 21.6524 10.2968 21.5961 10.2414V9.38259H21.69C21.737 9.38259 21.7933 9.3826 21.8309 9.44724C21.812 9.66232 21.812 9.87861 21.8309 10.0937L21.7745 10.2968Z" fill="#C21515"/>
<path d="M21.6524 12.9287H21.7934H21.8497V13.7968H21.8027C21.7375 13.7576 21.6631 13.7354 21.5867 13.7322C21.5397 13.4459 21.5867 13.1504 21.5867 12.8641C21.6138 12.8799 21.6364 12.9021 21.6524 12.9287Z" fill="#C21515"/>
<path d="M21.5773 16.4103H21.7182L21.8403 16.4749V17.1583C21.8403 17.2137 21.8403 17.2784 21.7652 17.2969H21.5773H21.5209C21.5209 17.1768 21.5209 17.066 21.5209 16.9552C21.5022 16.7802 21.5022 16.6038 21.5209 16.4288L21.5773 16.4103Z" fill="#C21515"/>
<path d="M7.48676 17.2876H7.34586V16.4288L8.11615 16.3641C8.73613 16.3641 9.35612 16.2718 9.99489 16.2071L11.1503 16.0778L12.2306 15.9485V16.8166C12.168 16.8218 12.1052 16.8218 12.0427 16.8166L10.3988 17.0198C9.70368 17.0937 9.00853 17.1583 8.30401 17.2045L7.48676 17.2876Z" fill="#D32626"/>
<path d="M10.3049 13.8984C10.3049 13.9538 10.3049 13.8984 10.3706 13.8984H10.5491C10.3894 14 10.3237 14.1201 10.4646 14.3048H10.3518C10.3401 14.2856 10.3236 14.2698 10.3039 14.2588C10.2841 14.2478 10.2618 14.242 10.2391 14.242C10.2164 14.242 10.1941 14.2478 10.1743 14.2588C10.1546 14.2698 10.1381 14.2856 10.1264 14.3048C10.1264 14.3048 10.0794 14.3879 10.0231 14.3602C10.0231 14.2863 10.1076 14.2124 10.0794 14.1477C10.0512 14.0831 9.97609 14.0646 9.89154 14C10.0982 14 10.2203 14 10.2016 13.7322V13.8061C10.2422 13.8294 10.2773 13.8609 10.3049 13.8984Z" fill="#F2F1F2"/>
<path d="M8.33219 11.0633C8.27583 11.1372 8.1725 11.1557 8.16311 11.2388C8.15371 11.3219 8.16311 11.3773 8.21947 11.4604C8.06917 11.3127 7.94706 11.3311 7.81555 11.4604C7.8813 11.3034 7.90008 11.1649 7.68402 11.091C7.88129 11.091 7.99402 11.0264 8.01281 10.8232C8.01281 10.8971 8.01282 10.9802 8.08797 11.0264C8.16312 11.0725 8.24764 11.0356 8.33219 11.0633Z" fill="#E1E0E1"/>
<path d="M9.82578 9.70579C9.78819 9.71929 9.7544 9.74136 9.72714 9.77016C9.69988 9.79896 9.67993 9.83368 9.66894 9.8715C9.65795 9.90933 9.6562 9.94917 9.66387 9.98778C9.67154 10.0264 9.6884 10.0627 9.71306 10.0937C9.55337 9.94594 9.43126 9.98287 9.30914 10.0937C9.38429 9.91823 9.3749 9.78891 9.16824 9.71503C9.39369 9.71503 9.46884 9.63193 9.49702 9.438C9.60035 9.70581 9.60033 9.70579 9.82578 9.70579Z" fill="#EAE9E9"/>
<path d="M10.3049 12.6702C10.3049 12.7256 10.3518 12.6702 10.38 12.6702H10.5397C10.5397 12.6702 10.5397 12.6702 10.5397 12.7164C10.5093 12.7272 10.4818 12.745 10.4596 12.7682C10.4375 12.7914 10.4211 12.8194 10.412 12.85C10.4028 12.8806 10.4011 12.9128 10.407 12.9441C10.4129 12.9754 10.4261 13.005 10.4458 13.0304C10.4458 13.0304 10.4458 13.0765 10.4458 13.0304L10.3236 12.9472C10.2673 12.9472 10.2391 12.9472 10.2016 12.9472C10.1645 12.9841 10.1196 13.0125 10.07 13.0304C10.1358 12.8826 10.1827 12.7348 9.9385 12.6794C10.1546 12.6794 10.2579 12.5963 10.2861 12.4116L10.3049 12.6702Z" fill="#F2F1F2"/>
<path d="M7.70283 12.3377C7.77798 12.3377 7.8813 12.3377 7.92827 12.3377C7.97154 12.2627 8.0032 12.1818 8.02221 12.0976C8.02221 12.3008 8.11614 12.4024 8.34159 12.3285C8.16311 12.4393 8.10674 12.5594 8.21947 12.7348C8.13493 12.7348 8.07856 12.6148 8.01281 12.624C7.94705 12.6333 7.88129 12.7071 7.80614 12.7625C7.83948 12.6897 7.8586 12.6114 7.8625 12.5316C7.85311 12.4116 7.7404 12.4024 7.70283 12.3377Z" fill="#EAE9E9"/>
<path d="M10.3049 11.4697C10.38 11.4697 10.4458 11.4697 10.5209 11.4697C10.5961 11.4697 10.5209 11.4697 10.5209 11.4697C10.4895 11.4807 10.4611 11.4988 10.4379 11.5224C10.4148 11.5461 10.3975 11.5747 10.3875 11.606C10.3775 11.6373 10.375 11.6705 10.3802 11.7029C10.3854 11.7353 10.3982 11.7661 10.4176 11.7929C10.4176 11.7929 10.1828 11.7282 10.07 11.8575C10.07 11.7559 10.1264 11.6913 10.07 11.6266C10.0137 11.562 9.94791 11.5436 9.89154 11.4697C9.93083 11.4793 9.9718 11.4802 10.0115 11.4723C10.0512 11.4644 10.0886 11.448 10.121 11.4241C10.1534 11.4002 10.1799 11.3695 10.1987 11.3343C10.2176 11.299 10.2281 11.2601 10.2297 11.2203L10.3049 11.4697Z" fill="#EAE9E9"/>
<path d="M10.3049 10.2045C10.3049 10.2599 10.3049 10.2045 10.38 10.2045H10.5491C10.5491 10.2045 10.3518 10.3707 10.4458 10.5185C10.5397 10.6662 10.4458 10.5739 10.4458 10.5185C10.4458 10.4631 10.2109 10.463 10.0888 10.5646C10.164 10.3984 10.1546 10.2692 9.95731 10.2045C9.99308 10.2143 10.0305 10.2171 10.0673 10.2126C10.1042 10.2082 10.1398 10.1966 10.1721 10.1786C10.2044 10.1606 10.2327 10.1364 10.2555 10.1076C10.2783 10.0788 10.2951 10.0458 10.3049 10.0106V10.2045Z" fill="#EAE9E9"/>
<path d="M9.49702 10.7217C9.59096 10.9433 9.59094 10.9433 9.85396 10.9248C9.68487 11.0264 9.58155 11.1372 9.71306 11.3311C9.56276 11.1741 9.43126 11.2111 9.30914 11.3311C9.38429 11.1557 9.3749 11.0264 9.16824 10.9618C9.20627 10.9715 9.24602 10.9726 9.28457 10.9652C9.32313 10.9578 9.35951 10.942 9.39104 10.919C9.42258 10.896 9.44847 10.8663 9.46681 10.8321C9.48515 10.798 9.49547 10.7602 9.49702 10.7217Z" fill="#EAE9E9"/>
<path d="M9.71306 15.0158C9.55337 14.8681 9.43126 14.9142 9.30914 15.0158C9.3655 14.8496 9.39367 14.7203 9.17761 14.6465C9.38427 14.6465 9.47823 14.5633 9.48762 14.3602C9.55338 14.4525 9.53458 14.5541 9.60034 14.5818C9.67799 14.5957 9.75754 14.5957 9.83518 14.5818C9.67549 14.7203 9.59094 14.8311 9.71306 15.0158Z" fill="#EAE9E9"/>
<path d="M8.42613 10.4446C8.50128 10.3984 8.59521 10.4446 8.65157 10.3892C8.70793 10.3337 8.70794 10.2599 8.74551 10.1399C8.74551 10.3615 8.86764 10.4446 9.0743 10.38C9.03495 10.3926 8.9992 10.4142 8.96995 10.443C8.9407 10.4718 8.91878 10.507 8.90596 10.5457C8.89315 10.5844 8.88979 10.6255 8.89619 10.6657C8.90259 10.7059 8.91855 10.7441 8.94277 10.7771C8.79247 10.6293 8.67036 10.6662 8.53885 10.7771C8.56695 10.7095 8.58286 10.6376 8.58584 10.5646C8.59523 10.5092 8.49189 10.5 8.42613 10.4446Z" fill="#EAE9E9"/>
<path d="M7.69342 14.8034C7.73315 14.8121 7.77438 14.8115 7.81386 14.8019C7.85333 14.7922 7.88997 14.7736 7.92093 14.7477C7.95188 14.7217 7.97631 14.6891 7.99225 14.6523C8.00819 14.6155 8.01522 14.5756 8.01281 14.5356C8.01281 14.7296 8.13492 14.8034 8.33219 14.7573C8.2944 14.7719 8.2606 14.795 8.2334 14.8247C8.2062 14.8544 8.18636 14.8898 8.17544 14.9283C8.16452 14.9668 8.16281 15.0071 8.17045 15.0464C8.17809 15.0856 8.19487 15.1226 8.21947 15.1544C8.07856 15.0158 7.94706 15.0066 7.81555 15.1544C7.8813 15.0066 7.90009 14.8773 7.69342 14.8034Z" fill="#EAE9E9"/>
<path d="M9.30914 12.5871C9.3655 12.4301 9.40308 12.2916 9.16824 12.2269C9.3749 12.2269 9.48762 12.153 9.5158 11.9591C9.5158 12.0237 9.51579 12.1161 9.59094 12.153C9.66609 12.19 9.74124 12.153 9.82578 12.153C9.91032 12.153 9.69428 12.2546 9.6567 12.3193C9.61913 12.3839 9.70366 12.4578 9.70366 12.5686C9.55336 12.4116 9.43126 12.4485 9.30914 12.5871Z" fill="#EAE9E9"/>
<path d="M8.0034 9.58573C8.08795 9.83507 8.08795 9.83508 8.36037 9.82585C8.15371 9.92743 8.09734 10.0567 8.23825 10.2507C8.07855 10.1121 7.94706 10.066 7.81555 10.2507C7.87191 10.0937 7.90949 9.9459 7.67465 9.88125C7.9001 9.89972 7.98462 9.7889 8.0034 9.58573Z" fill="#EAE9E9"/>
<path d="M8.42613 14.1016C8.67976 14.1755 8.72672 14.0277 8.76429 13.8615C8.82065 13.9353 8.76431 14.0462 8.86764 14.0739C8.97097 14.1016 9.00853 14.0739 9.09308 14.0739C9.05231 14.0848 9.01514 14.1059 8.98517 14.1352C8.9552 14.1645 8.93346 14.201 8.9221 14.241C8.91075 14.281 8.91014 14.3232 8.92036 14.3636C8.93057 14.4039 8.95124 14.4409 8.98036 14.471C8.82066 14.3048 8.69854 14.3509 8.56703 14.471C8.56703 14.3971 8.6328 14.3232 8.61402 14.2586C8.59523 14.1939 8.48249 14.1939 8.42613 14.1016Z" fill="#EAE9E9"/>
<path d="M9.0837 11.6174C8.9334 11.7098 8.83944 11.8206 8.97095 12.0053C8.81126 11.876 8.67978 11.876 8.55766 12.0053C8.63281 11.839 8.64219 11.7098 8.42613 11.6451C8.52007 11.5897 8.62341 11.6451 8.67038 11.5897C8.71129 11.5212 8.73988 11.4462 8.75492 11.368C8.85825 11.6266 8.85825 11.6266 9.0837 11.6174Z" fill="#EAE9E9"/>
<path d="M9.85396 13.3813C9.68487 13.4921 9.58156 13.5937 9.72246 13.7876C9.56277 13.6583 9.43127 13.6491 9.31854 13.8522C9.31854 13.7322 9.3749 13.6583 9.31854 13.5937C9.26218 13.529 9.19642 13.5198 9.14006 13.4367C9.34672 13.4367 9.44065 13.3628 9.45944 13.1688C9.5158 13.252 9.45943 13.3628 9.56276 13.3905C9.66609 13.4182 9.74124 13.3905 9.85396 13.3813Z" fill="#EAE9E9"/>
<path d="M9.10248 12.8457C8.93339 12.9472 8.83005 13.0488 8.97095 13.2335C8.82065 13.1134 8.68917 13.095 8.55766 13.2335C8.63281 13.058 8.63279 12.9288 8.42613 12.8641C8.52007 12.8087 8.61402 12.8641 8.67038 12.8087C8.72674 12.7533 8.67035 12.6609 8.76429 12.5963C8.85823 12.5317 8.76432 12.7533 8.84886 12.7995C8.9334 12.8457 8.99915 12.8364 9.10248 12.8457Z" fill="#EAE9E9"/>
<path d="M7.80614 13.9354C7.90947 13.7599 7.87189 13.6491 7.68402 13.5752C7.77796 13.529 7.8719 13.5752 7.92827 13.5198C7.97236 13.4527 8.00119 13.3772 8.01281 13.2981C8.01281 13.3813 8.0128 13.4828 8.09735 13.5105C8.18189 13.5382 8.24765 13.5105 8.34159 13.5105C8.14432 13.5936 8.11614 13.7322 8.21947 13.9169C8.06917 13.7045 7.94705 13.8153 7.80614 13.9354Z" fill="#EAE9E9"/>
<path d="M19.3416 12.1438L16.5235 12.6148C15.415 12.8087 14.3066 12.9842 13.1981 13.1504H13.029C13.029 12.8549 13.029 12.5594 13.029 12.2731C14.7387 12.0238 16.4295 11.7282 18.1298 11.4419C18.5431 11.3681 18.9564 11.3127 19.3792 11.248L19.3416 12.1438Z" fill="#DD3030"/>
<path d="M12.9914 14.0647C14.8138 13.7968 16.6268 13.4829 18.4492 13.1412C18.7404 13.1412 19.041 13.0396 19.3416 13.0119V13.8707C18.7968 13.9353 18.2613 14.037 17.7259 14.1293C16.345 14.3602 14.9829 14.6003 13.6021 14.8034L13.0103 14.8958L12.9914 14.0647Z" fill="#DD3030"/>
<path d="M19.2664 10.3892L16.8335 10.7955C15.7438 10.9802 14.6447 11.1649 13.5551 11.3311L12.9914 11.4143C12.9914 11.1188 12.9914 10.8232 12.9914 10.5369L15.509 10.1399C16.7583 9.94592 17.9889 9.70578 19.2664 9.52108V10.3892Z" fill="#DD3030"/>
<path d="M12.3057 14.7203C12.3057 14.7203 12.3057 14.7203 12.3057 14.6649C12.3057 14.6095 12.3527 14.4156 12.1648 14.3509C12.2064 14.3579 12.249 14.3556 12.2895 14.3442C12.33 14.3329 12.3674 14.3127 12.399 14.2852C12.4305 14.2577 12.4554 14.2237 12.4718 14.1855C12.4881 14.1473 12.4956 14.106 12.4936 14.0647C12.4936 14.2678 12.6251 14.3324 12.8224 14.2586C12.6815 14.3601 12.5781 14.471 12.7002 14.6649C12.5312 14.5171 12.4185 14.5818 12.3151 14.7203H12.3057Z" fill="#F2F1F2"/>
<path d="M11.3288 11.9868C11.1879 12.0976 11.0564 12.1992 11.2067 12.4024C11.0376 12.2362 10.9248 12.3101 10.8027 12.4024C10.8685 12.2454 10.8685 12.1161 10.6618 12.0422C10.8779 12.0422 10.9624 11.9591 10.9906 11.7652C11.0282 12.0053 11.1409 12.0515 11.3288 11.9868Z" fill="#F2F1F2"/>
<path d="M12.6721 9.73352C12.5312 9.61347 12.409 9.64118 12.2869 9.79817C12.3527 9.63195 12.3809 9.4934 12.146 9.42876C12.1882 9.43729 12.2319 9.43619 12.2736 9.42554C12.3153 9.41489 12.354 9.39497 12.3867 9.36732C12.4193 9.33967 12.4451 9.30501 12.462 9.26603C12.4789 9.22705 12.4865 9.18479 12.4842 9.14248C12.4842 9.36411 12.6345 9.39182 12.8318 9.31794C12.7591 9.35713 12.7031 9.42054 12.6738 9.49673C12.6446 9.57293 12.6439 9.65691 12.6721 9.73352Z" fill="#F2F1F2"/>
<path d="M11.3194 14.4525C11.2806 14.4673 11.2458 14.4907 11.2176 14.5208C11.1895 14.5509 11.1687 14.587 11.1569 14.6262C11.1451 14.6655 11.1426 14.7068 11.1496 14.7471C11.1566 14.7874 11.1729 14.8257 11.1973 14.8588C11.0376 14.7111 10.9248 14.7573 10.8027 14.8588C10.8497 14.7018 10.9061 14.5541 10.6524 14.4987C10.8591 14.4987 10.9812 14.4433 10.9812 14.2124C11.0282 14.4525 11.1221 14.5264 11.3194 14.4525Z" fill="#F2F1F2"/>
<path d="M10.7746 13.7045C10.8591 13.529 10.8873 13.3905 10.6524 13.3351C10.7558 13.2889 10.8591 13.3351 10.9061 13.2705C10.9454 13.2045 10.9739 13.1328 10.9906 13.058C11.047 13.1134 10.9906 13.215 11.0845 13.252C11.1785 13.2889 11.2348 13.252 11.357 13.252C11.1879 13.3628 11.0658 13.4644 11.2161 13.6491C11.1127 13.6491 11.0564 13.5382 10.9906 13.5659C10.9117 13.6007 10.8388 13.6475 10.7746 13.7045Z" fill="#F2F1F2"/>
<path d="M11.1785 11.1557C11.1579 11.1252 11.13 11.1002 11.0972 11.0829C11.0644 11.0656 11.0278 11.0566 10.9906 11.0566C10.9534 11.0566 10.9168 11.0656 10.884 11.0829C10.8512 11.1002 10.8233 11.1252 10.8027 11.1557C10.8027 11.0079 10.9061 10.8509 10.6618 10.8047C10.7034 10.8117 10.746 10.8094 10.7865 10.798C10.827 10.7867 10.8644 10.7665 10.896 10.739C10.9275 10.7115 10.9524 10.6775 10.9688 10.6393C10.9852 10.6011 10.9926 10.5598 10.9906 10.5185C10.9906 10.7124 11.1221 10.777 11.3006 10.7032C11.235 10.7367 11.1855 10.7942 11.1627 10.8633C11.1398 10.9324 11.1455 11.0076 11.1785 11.0726V11.1557Z" fill="#F2F1F2"/>
<path d="M11.1879 9.91823C11.047 9.82588 10.9249 9.80737 10.8121 9.99207C10.8121 9.88125 10.8121 9.81659 10.8121 9.75195C10.8121 9.68731 10.6994 9.6781 10.6337 9.60422C10.8309 9.60422 10.9342 9.5396 10.953 9.33643C10.953 9.53036 11.0939 9.58573 11.263 9.53032C11.0939 9.61344 11.1127 9.75197 11.1503 9.8905L11.1879 9.91823Z" fill="#F2F1F2"/>
<path d="M11.9394 10.4354C11.8548 10.4354 11.8079 10.3245 11.7233 10.3615C11.654 10.4055 11.5908 10.4582 11.5354 10.5185C11.5354 10.4169 11.6012 10.343 11.5918 10.2783C11.5824 10.2137 11.4697 10.2045 11.4133 10.1306C11.4535 10.139 11.4951 10.1383 11.535 10.1286C11.5748 10.119 11.6119 10.1006 11.6435 10.0748C11.6752 10.0491 11.7005 10.0166 11.7175 9.97989C11.7346 9.94318 11.743 9.90318 11.7421 9.86282C11.7421 10.0475 11.8642 10.1214 12.0427 10.0383C12.0105 10.0538 11.9818 10.0757 11.9585 10.1025C11.9352 10.1294 11.9177 10.1606 11.9071 10.1944C11.8965 10.2281 11.8931 10.2637 11.8971 10.2987C11.901 10.3338 11.9122 10.3677 11.93 10.3984L11.9394 10.4354Z" fill="#F2F1F2"/>
<path d="M11.5542 12.9657C11.6106 12.818 11.6294 12.6887 11.4227 12.624C11.62 12.624 11.7327 12.5594 11.7421 12.347C11.7421 12.5594 11.9018 12.5963 12.0803 12.5409C11.9488 12.6425 11.8267 12.7533 11.9582 12.9472C11.7891 12.781 11.6763 12.8641 11.5636 12.9934L11.5542 12.9657Z" fill="#F2F1F2"/>
<path d="M11.5542 11.7282C11.5551 11.7128 11.5551 11.6974 11.5542 11.6821C11.6012 11.4881 11.6012 11.4881 11.4039 11.3589C11.6106 11.3589 11.7327 11.3034 11.7515 11.091C11.7515 11.2942 11.8924 11.3311 12.0709 11.2942C11.9206 11.3866 11.8454 11.5066 11.9582 11.6636C11.8079 11.5158 11.7045 11.6636 11.6012 11.7098L11.5542 11.7282Z" fill="#F2F1F2"/>
<path d="M11.5636 14.194C11.5636 14.194 11.5636 14.1108 11.5636 14.0739C11.5636 14.037 11.5636 13.9261 11.4885 13.8892C11.4707 13.8839 11.4546 13.8744 11.4415 13.8615C11.4284 13.8486 11.4187 13.8327 11.4133 13.8153C11.6012 13.8153 11.7045 13.7507 11.7139 13.5568C11.7891 13.6214 11.7609 13.7322 11.836 13.7599C11.917 13.7722 11.9994 13.7722 12.0803 13.7599C11.9206 13.8615 11.8078 13.9723 11.9394 14.157C11.8454 14.157 11.7891 14.0462 11.7233 14.0739C11.6553 14.1042 11.5968 14.152 11.5542 14.2124L11.5636 14.194Z" fill="#F2F1F2"/>
<path d="M12.2963 11.0172C12.3527 10.8602 12.3809 10.7217 12.1554 10.6662C12.3433 10.6662 12.4748 10.5924 12.4654 10.3707C12.5406 10.4446 12.5218 10.5554 12.5875 10.5739C12.6533 10.5923 12.7284 10.5739 12.8224 10.5739C12.756 10.6252 12.6961 10.6841 12.6439 10.7493C12.6439 10.814 12.6909 10.8879 12.6439 10.9802C12.5312 10.8324 12.409 10.8787 12.2963 11.0172Z" fill="#F2F1F2"/>
<path d="M12.3057 12.2546C12.2935 12.2386 12.2869 12.2192 12.2869 12.1992C12.2869 12.1792 12.2935 12.1598 12.3057 12.1438C12.3527 12.0422 12.3057 11.9776 12.2306 11.9407C12.2081 11.9172 12.192 11.8886 12.1836 11.8575C12.3715 11.8575 12.4842 11.7929 12.4842 11.5897C12.5687 11.6451 12.5406 11.7559 12.6063 11.7836C12.6904 11.7959 12.7759 11.7959 12.8599 11.7836C12.7003 11.8944 12.5875 11.996 12.7096 12.1992C12.5406 12.033 12.4278 12.1253 12.3245 12.1992L12.3057 12.2546Z" fill="#F2F1F2"/>
<path d="M12.3057 13.4829C12.3057 13.4829 12.3057 13.3997 12.3057 13.3628C12.3057 13.3259 12.3057 13.215 12.24 13.1781L12.1366 13.1134C12.3433 13.1134 12.4654 13.0488 12.4748 12.8364C12.4748 13.0303 12.6063 13.1042 12.8036 13.0211C12.6627 13.1319 12.5594 13.2428 12.6909 13.4275C12.5875 13.4275 12.5406 13.3166 12.4654 13.3443C12.4027 13.3825 12.3458 13.4291 12.2963 13.4829H12.3057Z" fill="#F2F1F2"/>
<path d="M21.9906 17.5461C21.9906 17.5461 21.9906 17.4538 21.8967 17.4353C21.8027 17.4168 21.8027 17.3799 21.7558 17.3522H21.5679H21.5115C21.3145 17.3384 21.1167 17.3384 20.9197 17.3522H20.7225C20.6102 17.3385 20.4966 17.3385 20.3843 17.3522H20.1964L19.924 17.3984H19.7361L19.3979 17.4538C18.9658 17.5 18.5431 17.5739 18.111 17.6478C16.6456 17.8971 15.1802 18.1649 13.7054 18.3773H13.5363H13.433C12.2963 18.5528 11.1597 18.6821 10.0137 18.8114L8.18189 18.9776L7.17678 19.033H7.04526L5.70197 19.0884H4.51836V20.0119C4.91289 20.0119 5.30743 20.0119 5.70197 20.0119C5.78331 20.0165 5.86484 20.0165 5.94619 20.0119L7.58071 19.9472L8.18189 19.8918C8.54824 19.8918 8.91462 19.8918 9.29036 19.8087L10.0418 19.7348L10.8309 19.6609L11.5636 19.5686C12.6063 19.4393 13.6396 19.2823 14.6729 19.1161L17.8386 18.5897L19.4167 18.3219H19.708H19.924H20.1964H20.3843H20.7225H20.9667C21.1667 18.3036 21.3679 18.3036 21.5679 18.3219H21.69L21.7839 18.368C21.8591 18.368 21.8873 18.4696 21.9248 18.5343L21.9906 17.5461Z" fill="#F2F1F2"/>
<path d="M20.7131 17.2784C20.6008 17.2646 20.4872 17.2646 20.3749 17.2784H20.187V16.4749H20.45C20.6003 16.4749 20.7506 16.4749 20.9009 16.4749V17.343L20.7131 17.2784Z" fill="#C21515"/>
<path d="M20.9103 17.2599V16.3918C21.1103 16.3735 21.3116 16.3735 21.5115 16.3918C21.4928 16.5668 21.4928 16.7432 21.5115 16.9182C21.5115 17.029 21.5115 17.1398 21.5115 17.2599C21.3114 17.2456 21.1105 17.2456 20.9103 17.2599Z" fill="#A60606"/>
<path d="M20.187 16.4749V17.343L19.9146 17.3892H19.7267V16.4749C19.7267 16.4749 19.7831 16.4749 19.7925 16.4749C19.9142 16.4884 20.0371 16.4884 20.1588 16.4749H20.187Z" fill="#D32626"/>
<path d="M13.4987 17.5277L14.4944 17.3615L17.6789 16.8259L19.6986 16.4749V17.3984L19.3604 17.4538C18.9283 17.5 18.5055 17.5739 18.0734 17.6478C16.608 17.8971 15.1426 18.1649 13.6678 18.3773H13.4987C13.48 18.1838 13.48 17.989 13.4987 17.7955V17.5277Z" fill="#DD3030"/>
<path d="M19.2664 10.3892V9.52108L19.5201 9.47492L20.0461 9.40108H20.2152V10.2599H20.0273C19.8472 10.2709 19.6682 10.2956 19.4919 10.3338L19.2664 10.3892Z" fill="#D32626"/>
<path d="M20.2058 10.2599V9.40108H20.4219H20.9103V10.2599H20.854C20.7197 10.2463 20.5843 10.2463 20.45 10.2599H20.2058Z" fill="#C21515"/>
<path d="M20.9103 10.1953V9.33642C21.0762 9.32704 21.2424 9.32704 21.4082 9.33642H21.5397V10.1953C21.3424 10.2137 21.1264 10.1953 20.9103 10.1953Z" fill="#A60606"/>
<path d="M21.0512 14.628C21.2198 14.6097 21.3899 14.6097 21.5585 14.628C21.5396 14.7999 21.5396 14.9733 21.5585 15.1451C21.5585 15.256 21.5585 15.376 21.5585 15.4868H21.0606L21.0512 14.628Z" fill="#A60606"/>
<path d="M21.5773 11.9961H21.0982V11.1372C21.2602 11.1139 21.4247 11.1139 21.5867 11.1372L21.5773 11.9961Z" fill="#A60606"/>
<path d="M20.854 12.8549C21.0788 12.8316 21.3055 12.8316 21.5303 12.8549C21.5303 13.1412 21.5303 13.4367 21.5303 13.723C21.3147 13.7046 21.0978 13.7046 20.8822 13.723C20.8822 13.723 20.8164 13.723 20.7788 13.723V12.7995L20.854 12.8549Z" fill="#A60606"/>
<path d="M19.2664 15.6715L18.111 15.8655L14.6729 16.4472C13.8557 16.5765 13.0478 16.7058 12.2212 16.8074V15.9393L13.5457 15.7454C14.626 15.5884 15.7062 15.4037 16.7865 15.219C17.5944 15.0897 18.3928 14.9327 19.2007 14.8219C19.2007 14.8219 19.2007 14.8219 19.2664 14.8219V15.6715Z" fill="#DD3030"/>
<path d="M19.2664 15.6715V14.8127H19.3604C19.6798 14.8127 19.9804 14.7111 20.2998 14.6926V15.5515H20.1307H19.7925L19.2664 15.6715Z" fill="#D32626"/>
<path d="M19.3416 12.1438V11.2757H19.4825L20.0179 11.2111H20.3937V12.0791H20.2434C20.184 12.0741 20.1243 12.0741 20.0649 12.0791C19.8346 12.0957 19.6055 12.1266 19.3792 12.1715L19.3416 12.1438Z" fill="#D32626"/>
<path d="M20.281 13.7876L19.4543 13.8892H19.3416V13.0304H19.3886L20.2528 12.9103H20.4219V13.7691L20.281 13.7876Z" fill="#D32626"/>
<path d="M21.9906 15.7823C21.9674 15.7394 21.9354 15.7017 21.8967 15.6715C21.851 15.6248 21.7921 15.5926 21.7276 15.5792H21.5679V16.4472H21.7088L21.8309 16.5119C21.8879 16.5619 21.9356 16.6212 21.9718 16.6873L21.9906 15.7823Z" fill="#F2F1F2"/>
<path d="M21.5773 15.5515H21.0794H20.9573C20.7981 15.5331 20.6374 15.5331 20.4782 15.5515H20.3279H20.1588H19.8207L19.2946 15.6161L18.1392 15.8101L14.7011 16.3918C13.8839 16.5211 13.076 16.6504 12.2494 16.752C12.1868 16.7571 12.124 16.7571 12.0615 16.752L10.4176 16.9552C9.72245 17.029 9.02734 17.0936 8.32281 17.1398L7.5713 17.2045H7.32706L5.44832 17.2784H4.55594V18.2018C4.85654 18.2018 5.14772 18.2018 5.44832 18.2018H5.63621H7.08284H7.54312H7.60888L9.70366 18.0356L10.4364 17.9525C11.0939 17.8971 11.7515 17.8047 12.409 17.7216L13.5457 17.5646L14.5414 17.3984L17.7259 16.8628L19.6985 16.4749C19.6985 16.4749 19.7549 16.4749 19.7643 16.4749C19.886 16.4884 20.0089 16.4884 20.1306 16.4749H20.3937C20.544 16.4749 20.6943 16.4749 20.8446 16.4749C21.0445 16.4566 21.2458 16.4566 21.4458 16.4749V15.5515H21.5773Z" fill="#F2F1F2"/>
<path d="M21.9906 10.4908C21.9906 10.4908 21.9343 10.3892 21.8779 10.3615L21.7745 10.2968C21.7182 10.2968 21.6524 10.2968 21.5961 10.2414C21.38 10.2414 21.1639 10.2414 20.9479 10.2414H20.8915C20.7573 10.2278 20.6219 10.2278 20.4876 10.2414H20.2434H20.0555C19.8754 10.2524 19.6963 10.2771 19.5201 10.3153H19.304L16.871 10.7216C15.7814 10.9063 14.6823 11.091 13.5927 11.2572L13.029 11.3404C13.029 11.6359 13.029 11.9437 13.029 12.2638C14.7387 12.0145 16.4295 11.719 18.1298 11.4327C18.5431 11.3588 18.9565 11.3034 19.3792 11.2388H19.5201L20.0555 11.1741H20.4313H20.5064H20.8915C20.9667 11.1741 21.0418 11.1741 21.1076 11.1741C21.2696 11.1509 21.4341 11.1509 21.5961 11.1741H21.737H21.8309C21.9044 11.2261 21.9627 11.2962 22 11.3773L21.9906 10.4908Z" fill="#E1E0E1"/>
<path d="M20.45 15.5515H20.2998V14.6926H20.9009H21.0512V15.5607H20.9291C20.7703 15.5393 20.6095 15.5362 20.45 15.5515Z" fill="#C21515"/>
<path d="M21.9906 14.0185C21.9906 13.9631 21.9249 13.8984 21.8497 13.8707H21.8027V14.7942C21.8863 14.844 21.952 14.9183 21.9906 15.0066V14.0185Z" fill="#E1E0E1"/>
<path d="M21.5773 13.7784C21.5773 13.9446 21.5773 14.1016 21.5773 14.2678C21.5773 14.1016 21.5773 13.9446 21.5773 13.7784C21.3616 13.76 21.1448 13.76 20.9291 13.7784V14.7019H21.0794C21.248 14.6836 21.4181 14.6836 21.5867 14.7019C21.5912 14.6744 21.5912 14.6463 21.5867 14.6187C21.5912 14.6463 21.5912 14.6744 21.5867 14.7019C21.6575 14.7037 21.7262 14.7262 21.7839 14.7665V13.843C21.7214 13.8053 21.6505 13.7831 21.5773 13.7784Z" fill="#E1E0E1"/>
<path d="M20.807 13.7507H20.4219H20.281L19.4543 13.8522H19.3416C18.7968 13.9169 18.2613 14.0185 17.7259 14.1108C16.345 14.3417 14.9829 14.5818 13.6021 14.785L13.0103 14.8773H12.8694L11.5073 15.0528L10.3894 15.1821H10.0043L9.16824 15.2559L8.14433 15.3483H7.60889H7.21434L5.58925 15.4222H4.52776V16.475H5.72075L7.37404 16.4195L8.14433 16.3549C8.76432 16.3549 9.3843 16.2626 10.0231 16.1979L11.1785 16.0686L12.2587 15.9393L13.5833 15.7454C14.6635 15.5884 15.7438 15.4037 16.8241 15.219C17.6319 15.0897 18.4304 14.9328 19.2383 14.8219C19.2383 14.8219 19.2382 14.8219 19.304 14.8219H19.3979C19.7173 14.8219 20.0179 14.7204 20.3373 14.7019H20.9385V13.7784C20.9385 13.7784 20.8446 13.7045 20.807 13.7507Z" fill="#E1E0E1"/>
<path d="M20.4688 11.1187H20.854C20.9291 11.1187 21.0043 11.1187 21.07 11.1187V11.9776H20.8446C20.7512 11.9636 20.6562 11.9636 20.5628 11.9776H20.3937V11.1095L20.4688 11.1187Z" fill="#C21515"/>
<path d="M20.6379 12.8733H20.854V13.7968H20.4688V12.938L20.6379 12.8733Z" fill="#C21515"/>
<path d="M21.9906 12.2546C21.9436 12.19 21.9061 12.1161 21.8215 12.0976H21.7745H21.6524V13.0211H21.7933H21.8497C21.9249 13.0211 21.953 13.1227 21.9906 13.1873V12.2546Z" fill="#EAE9E9"/>
<path d="M21.5773 11.9961H21.0982H20.8728C20.7794 11.9821 20.6844 11.9821 20.591 11.9961H20.4218H20.2715V12.8641H20.4407H20.6097H20.8728C21.0976 12.8409 21.3243 12.8409 21.5491 12.8641C21.5887 12.8508 21.6317 12.8508 21.6712 12.8641V11.9407L21.5773 11.9961Z" fill="#EAE9E9"/>
<path d="M20.0743 12.0515C19.844 12.068 19.6149 12.0988 19.3886 12.1438H19.3416L16.5235 12.6148C15.415 12.8087 14.3066 12.9842 13.1981 13.1504H13.029C13.029 13.4459 13.029 13.7537 13.029 14.0739C14.8514 13.8061 16.6644 13.4921 18.4868 13.1504C18.778 13.1504 19.0786 13.0488 19.3792 13.0211H19.4261L20.2904 12.901V12.033C20.2179 12.0317 20.1455 12.0379 20.0743 12.0515Z" fill="#EAE9E9"/>
</g>
<defs>
<clipPath id="clip0_4_657">
<rect width="22" height="21" fill="white"/>
</clipPath>
</defs>
</svg>
